<svg width="400" height="400" fill="none" xmlns="http://www.w3.org/2000/svg"><circle cx="200" cy="200" r="200" fill="#651FFF"/><path d="M166.666 250H33.333c-9.205 0-16.667 7.462-16.667 16.667v100c0 9.204 7.462 16.666 16.667 16.666h133.333c9.205 0 16.667-7.462 16.667-16.666v-100c0-9.205-7.462-16.667-16.667-16.667z" stroke="#FF5823" stroke-width="6" stroke-linecap="round" stroke-linejoin="round"/><path d="M149.992 249.996v-11.167a16.666 16.666 0 00-21.25-16.083l-104.75 30.083m159.34 44.161h-31.833a18.167 18.167 0 00-18.167 18.167 18.25 18.25 0 0018.167 18.167h31.833" stroke="#FF5823" stroke-width="6" stroke-linecap="round" stroke-linejoin="round"/></svg>