<svg width="658" height="431" fill="none" xmlns="http://www.w3.org/2000/svg"><path d="M146 348.4c0-20.5-16.6-37.1-37.1-37.1h-7c-9.8 0-19.3-3.9-26.3-10.9L57 281.8c-7-7-16.4-10.9-26.3-10.9-16.9 0-30.7-13.7-30.7-30.7v-5.1c0-19.7 16-35.7 35.7-35.7h29.6c7 0 12.6-5.7 12.6-12.6 0-7-5.7-12.6-12.6-12.6h-16c-10.1 0-18.3-8.2-18.3-18.3 0-10.1 8.2-18.3 18.3-18.3h122.5c8.6 0 15.6-7 15.6-15.6s-7-15.6-15.6-15.6h-15c-17.4 0-31.5-14.1-31.5-31.5s14.1-31.5 31.5-31.5h42.9c19.6 0 38.5-7.8 52.4-21.7C266 7.8 284.8 0 304.5 0h109.3c16.5 0 32.4 6.6 44.1 18.3C469.6 30 485.4 36.6 502 36.6h114.8c11.8 0 21.3 9.5 21.3 21.3s-9.5 21.3-21.3 21.3h-31.1c-14.6 0-26.4 11.8-26.4 26.4 0 14.6 11.8 26.4 26.4 26.4h37.8c18.8 0 34 15.2 34 34s-15.2 34-34 34h-59.8c-14.1 0-25.5 11.4-25.5 25.5s11.4 25.5 25.5 25.5h31c16.8 0 30.4 13.6 30.4 30.4 0 16.8-13.6 30.4-30.4 30.4h-43.6c-22.8 0-44.6 9.1-60.8 25.2-16.1 16.1-38 25.2-60.8 25.2h-15.2c-11.2 0-21.9 4.4-29.8 12.4-8 8-18.9 12.5-30.2 12.4l-171.5-1.4c-20.3-.2-36.8-16.8-36.8-37.2z" fill="#651FFF"/><path d="M361.4 395.2c0-1.8 1.5-3.3 3.3-3.3H512c1.8 0 3.3-1.5 3.3-3.3 0-1.8-1.5-3.3-3.3-3.3H27.4c-1.8 0-3.3 1.5-3.3 3.3 0 1.8 1.5 3.3 3.3 3.3h118.1c1.8 0 3.3 1.5 3.3 3.3 0 1.8-1.5 3.3-3.3 3.3H79.8c-1.6 0-2.9 1.3-2.9 2.9v.8c0 1.6 1.3 2.9 2.9 2.9h145.6c1.8 0 3.3 1.5 3.3 3.3 0 1.8-1.5 3.3-3.3 3.3h-34.5c-1.8 0-3.3 1.5-3.3 3.3 0 1.8 1.5 3.3 3.3 3.3H383c1.8 0 3.3-1.5 3.3-3.3 0-1.8-1.5-3.3-3.3-3.3h-66c-1.8 0-3.3-1.5-3.3-3.3 0-1.8 1.5-3.3 3.3-3.3h142.7c1.6 0 2.9-1.3 2.9-2.9v-.7c0-1.6-1.3-2.9-2.9-2.9h-94.9c-1.9-.1-3.4-1.6-3.4-3.4z" fill="#3E18A8"/><path d="M71.3 336v17.7H55.9v-17.8l15.4.1zm161.199 0v17.7h-43.3v-17.8l43.3.1z" fill="#21255C"/><path d="M201.099 293.101c-6.1 0-11.1 18.6-11.9 42.8h23.7c-.8-24.2-5.8-42.8-11.8-42.8z" fill="#21255C"/><path d="M238.199 300.4h-35.4v84.8h35.4c5.6 0 10.2-19 10.2-42.4s-4.6-42.4-10.2-42.4z" fill="#21255C"/><path d="M202.8 385.2c5.633 0 10.2-18.983 10.2-42.4 0-23.416-4.567-42.4-10.2-42.4-5.634 0-10.2 18.984-10.2 42.4 0 23.417 4.566 42.4 10.2 42.4z" fill="#495375"/><path d="M205.1 319.2c-.7-1.3-1.5-2-2.4-2-3.4 0-6.2 11.4-6.2 25.5s2.8 25.5 6.2 25.5c.8 0 1.6-.7 2.4-2-2.2-3.8-3.8-13-3.8-23.6 0-10.6 1.6-19.5 3.8-23.4z" fill="#C7D2D7"/><path d="M205.099 319.2c-2.2 3.8-3.8 13-3.8 23.6 0 10.6 1.6 19.7 3.8 23.6 2.2-3.8 3.8-13 3.8-23.6 0-10.6-1.5-19.7-3.8-23.6z" fill="#99A3B0"/><path d="M430.199 300.4h-35.4v84.8h35.4c5.6 0 10.2-19 10.2-42.4s-4.5-42.4-10.2-42.4z" fill="#21255C"/><path d="M394.8 385.2c5.633 0 10.2-18.983 10.2-42.4 0-23.416-4.567-42.4-10.2-42.4-5.634 0-10.2 18.984-10.2 42.4 0 23.417 4.566 42.4 10.2 42.4z" fill="#495375"/><path d="M397.2 319.2c-.7-1.3-1.5-2-2.4-2-3.4 0-6.2 11.4-6.2 25.5s2.8 25.5 6.2 25.5c.8 0 1.6-.7 2.4-2-2.2-3.8-3.8-13-3.8-23.6 0-10.6 1.5-19.5 3.8-23.4z" fill="#C7D2D7"/><path d="M397.2 319.2c-2.2 3.8-3.8 13-3.8 23.6 0 10.6 1.6 19.7 3.8 23.6 2.2-3.8 3.8-13 3.8-23.6 0-10.6-1.6-19.7-3.8-23.6z" fill="#99A3B0"/><path d="M67.7 293.101c-6.1 0-11.1 18.6-11.9 42.8h23.7c-.7-24.2-5.7-42.8-11.8-42.8z" fill="#21255C"/><path d="M476.4 73.9H232.5V336h243.9V73.9z" fill="#7DD3E9"/><path d="M466.15 325.688v-241.6h-223.5v241.6h223.5zM103.201 300.4h-35.4v84.8h35.4c5.6 0 10.2-19 10.2-42.4s-4.6-42.4-10.2-42.4z" fill="#21255C"/><path d="M67.7 385.2c5.633 0 10.2-18.983 10.2-42.4 0-23.416-4.567-42.4-10.2-42.4-5.633 0-10.2 18.984-10.2 42.4 0 23.417 4.567 42.4 10.2 42.4z" fill="#495375"/><path d="M70.1 319.2c-.7-1.3-1.5-2-2.4-2-3.4 0-6.2 11.4-6.2 25.5s2.8 25.5 6.2 25.5c.8 0 1.6-.7 2.4-2-2.2-3.8-3.8-13-3.8-23.6 0-10.6 1.6-19.5 3.8-23.4z" fill="#C7D2D7"/><path d="M70.1 319.2c-2.2 3.8-3.8 13-3.8 23.6 0 10.6 1.6 19.7 3.8 23.6 2.2-3.8 3.8-13 3.8-23.6 0-10.6-1.6-19.7-3.8-23.6z" fill="#99A3B0"/><path d="M135.6 73.9V336h53.6c.8-24.2 5.8-42.8 11.9-42.8 6.1 0 11.1 18.6 11.9 42.8h19.6V73.9h-97z" fill="#5FA5CC"/><path d="M135.6 135.5H92c-7.6 0-14.1 5.6-15.2 13.2l-11.1 79.8-13.9 14.3c-4.6 4.8-7.2 11.1-7.2 17.8V336h11.3c.8-24.2 5.8-42.799 11.9-42.799 6.1 0 11.1 18.599 11.9 42.799h56V135.5h-.1z" fill="#E8916A"/><path d="M484.5 335.9h-252v17.7h252v-17.7z" fill="#C7D2D7"/><path d="M232.5 335.9H213v17.8h19.5v-17.8zm-96.9 0v.1l-56-.1v17.8h109.6V336l-53.6-.1zm-79.7.1v17.7H40.5v-17.8l15.4.1z" fill="#99A3B0"/><path d="M117.1 146.7H92c-2 0-3.8 1.5-4 3.5l-10.9 78.2h40.1v-81.7h-.1z" fill="#7DD3E9"/><path d="M115.6 218.9c-3.9-3.9-9.2-6.1-14.8-6.1H86l7.4-59.5c.1-1 1-1.8 2-1.8h21.7v-4.8H92c-2 0-3.8 1.5-4 3.5l-10.9 78.2h40.1v-9.5h-1.6z" fill="#5FA5CC"/><path opacity=".5" d="M112.201 217.6c-5.3-4.2-8.4-10.5-8.4-17.3v-48.8c0-1.1.9-2 2-2h6.3c1.1 0 2 .9 2 2v65.2c.1 1-1.1 1.6-1.9.9z" fill="#fff"/><path d="M73.598 221.101h-8.2v4.1h8.2c1.1 0 2-.9 2-2 .1-1.1-.9-2.1-2-2.1z" fill="#495375"/><path d="M63.1 199.601H52.4c-1.5 0-2.7 1.2-2.7 2.7v24c0 1.5 1.2 2.7 2.7 2.7h10.7c1.5 0 2.7-1.2 2.7-2.7v-24c.1-1.5-1.2-2.7-2.7-2.7z" fill="#495375"/><path d="M67.199 199.601h-10.7c-1.5 0-2.7 1.2-2.7 2.7v24c0 1.5 1.2 2.7 2.7 2.7h10.7c1.5 0 2.7-1.2 2.7-2.7v-24c.1-1.5-1.2-2.7-2.7-2.7z" fill="#7DD3E9"/><path d="M113.4 228.4v96.5c0 1 .8 1.9 1.9 1.9 1 0 1.9-.8 1.9-1.9v-96.5h-3.8z" fill="#CC6164"/><path d="M50.6 294.6c-.8 0-1.5-.7-1.5-1.5v-31.4c0-6.3 2.4-12.2 6.8-16.7.6-.6 1.6-.6 2.2 0 .6.6.6 1.6 0 2.2-3.8 3.9-5.9 9.1-5.9 14.6v31.4c-.1.8-.8 1.4-1.6 1.4zm10.2-51c-.4 0-.8-.1-1.1-.4-.6-.6-.6-1.6 0-2.2l3-3.1c.6-.6 1.6-.6 2.2 0 .6.6.6 1.6 0 2.2l-3 3.1c-.3.2-.7.4-1.1.4z" fill="#F7DD8C"/><path d="M424.698 243.601h-82.2v82.2h82.2v-82.2z" fill="#F4D071"/><path d="M390.899 243.601h-14.6v25.7h14.6v-25.7z" fill="#FBEED1"/><path d="M342.598 243.601h-17.7v82.2h17.7v-82.2z" fill="#ECA85E"/><path d="M392.8 174.3h-69.3v69.3h69.3v-69.3z" fill="#F4D071"/><path d="M364.4 174.3H352V196h12.4v-21.7z" fill="#FBEED1"/><path d="M323.5 174.3h-22.4v69.3h22.4v-69.3z" fill="#ECA85E"/><path d="M301.099 161.4h-58.4v82.2h58.4v-82.2z" fill="#F4D071"/><path d="M267.299 161.4h-14.6v25.7h14.6v-25.7z" fill="#FBEED1"/><path d="M301.099 243.601h-58.4v-14.5l58.4 14.5z" fill="#ECA85E"/><path d="M324.899 243.601h-82.2v82.2h82.2v-82.2z" fill="#F4D071"/><path d="M291.1 243.601h-14.6v25.7h14.6v-25.7z" fill="#FBEED1"/><path d="M324.899 325.701h-82.2v-18.6l82.2 18.6z" fill="#ECA85E"/><path d="M250 347.9h-17.5v-12H262c0 6.7-5.4 12-12 12zm217 0h17.5v-12H455c0 6.7 5.4 12 12 12z" fill="#E8916A"/><path d="M232.501 347.9c-5.9 0-10.7-4.8-10.7-10.7v-1.3h10.7v12z" fill="#A34262"/><path d="M232.5 73.9l-96.9 220.7v41.3h19.9l77-163.1V73.9z" fill="#4494B7"/><path d="M214.8 142.101h-82.2v6.9h82.2v-6.9z" fill="#fff"/><path d="M214.8 149h-82.2v6.9h82.2V149z" fill="#C7D2D7"/><path d="M214.799 142.101v13.8h5.8v-13.8h-5.8z" fill="#99A3B0"/><path d="M214.8 216.3h-82.2v6.9h82.2v-6.9z" fill="#fff"/><path d="M214.8 223.2h-82.2v6.9h82.2v-6.9z" fill="#C7D2D7"/><path d="M214.799 216.3v13.8h5.8v-13.8h-5.8z" fill="#99A3B0"/><path d="M506 187.5h68.6l29.3 212.1h-30.5l-23.7-168.7h-19.6l9.9 168.7h-30.5l-14.1-212.1H506z" fill="#3E4870"/><path d="M605.999 399.6h-34.9l-1.4-10.1h34.9l1.4 10.1zm-63.999 0h-34.9l-.5-10.1h34.9l.5 10.1z" fill="#797C99"/><path d="M575.799 399.601h25.8l2 4.1c1.6 3.2 4.2 5.7 7.5 7.1 3.4 1.4 6.1 4.1 7.6 7.4h-41.1l-1.8-18.6z" fill="#ECA85E"/><path d="M618.7 418.301c.3.7.6 1.4.8 2.1l1.1 3.8h-42.4l-.6-5.9h41.1z" fill="#F4D071"/><path d="M499.899 409.401c5.3-1.3 9.8-4.7 12.5-9.5l.2-.3h25.2l2.4 18.6h-52.4c2.7-4.3 7.1-7.5 12.1-8.8z" fill="#ECA85E"/><path d="M487.8 418.301h52.3l.7 5.9h-55.7l1.1-2.8c.5-1.2 1-2.2 1.6-3.1z" fill="#F4D071"/><path d="M497 211.2h32.4l5.6 8.3c1.8 2.6 4.7 4.2 7.9 4.2 9.8 0 19.4-3.2 27.3-9.1l7.3-5.5-3-21.7h-79.1l1.6 23.8z" fill="#402C49"/><path d="M495.399 187.5h79.2l6.4-7.7-12.7-87.3h-65.8l-13.2 87.3 6.1 7.7z" fill="#FF5823"/><path d="M524.898 86h22l-9.7 6.5h-7.8l-4.5-6.5z" fill="#E8916A"/><path d="M526.699 65.3v27.2l7.1 7.8 10.3-7.8V65.3h-17.4z" fill="#F2C9AD"/><path d="M536.799 82.9c-3.1 1.4-6.7 1.7-10.1.9V65.3h17.4V76c-1.6 3-4.2 5.5-7.3 6.9z" fill="#402C49"/><path d="M531.599 23.2c11.6 0 20.9 9.4 20.9 20.9v15.7c0 11.6-9.4 20.9-20.9 20.9-11.6 0-20.9-9.4-20.9-20.9V44.2c0-11.6 9.3-21 20.9-21z" fill="#F2C9AD"/><path d="M552.499 44.2c0-11.6-9.4-20.9-20.9-20.9-11.6 0-20.9 9.4-20.9 20.9v4.3h41.9v-4.3h-.1z" fill="#EBA58E"/><path d="M527.099 51.3c.8 0 1.4.6 1.4 1.4v1.8c0 .8-.6 1.4-1.4 1.4-.8 0-1.4-.6-1.4-1.4v-1.8c.1-.8.7-1.4 1.4-1.4zm-14.1-1.2c.6 0 1.2.6 1.2 1.4v1.8c0 .8-.5 1.4-1.2 1.4-.6 0-1.2-.6-1.2-1.4v-1.8c0-.8.6-1.4 1.2-1.4z" fill="#402C49"/><path d="M516.398 60c1.8.5 3.7.7 5.6.7-.4.5-.9 1.1-1.5 1.5-.6.4-1.3.6-1.9.4-.6-.1-1-.5-1.4-1-.4-.5-.6-1-.8-1.6z" fill="#EBA58E"/><path d="M516.199 65.9c4.3 1 8.9 1.1 13.2.1-.4 2-1.9 3.8-3.7 4.8-1.8.9-4.1 1-5.9.1-1.8-.8-3.1-3-3.6-5z" fill="#fff"/><path d="M528.5 45.6c2.3.3 4.2 1.6 5.2 3.4l-11.1-1.4c1.5-1.4 3.6-2.3 5.9-2zm-15.702.5c-1 .2-1.9 1.2-2.3 2.5l5-1c-.8-1.1-1.7-1.7-2.7-1.5z" fill="#6A3649"/><path d="M549.799 61.4c-2.1.1-4.5 0-5.8-1.6-.8-1-1-2.4-1.1-3.7-.5-5.8-1.1-11.6-1.6-17.4-2.2 1.9-37.1-2.8-29.2-12.4 2.9-3.5 6.4-6.5 10.4-8.7 3.9-2.3 8.5-3.6 13-3.1s8.9 3.1 11 7.1c3.7-.2 7.8 2.1 9.9 5.2 2.1 3.1 2.9 7 2.8 10.7-.1 3.7-.9 7.4-1.7 11.1-.6 2.5-1.1 4.9-2.1 7.2-1 2.2-3.1 5.5-5.6 5.6z" fill="#6A3649"/><path d="M557.599 48.5c.8-3.7 1.7-7.3 1.7-11.1.1-3.7-.7-7.6-2.8-10.7-2.1-3.1-6.1-5.4-9.9-5.2-2.1-4-6.5-6.5-11-7.1-4.5-.5-9.1.8-13 3.1-3.9 2.3-7.5 5.2-10.4 8.7-7.9 9.7 27 14.3 29.2 12.4.3 3.3.6 6.6.9 9.8l15.3.1z" fill="#402C49"/><path d="M526.599 11.7h-3.4c-7.7 0-14 6.3-14 14V42h31.4V25.7c0-7.7-6.3-14-14-14z" fill="#F4D071"/><path d="M542.3 11.7h-15.7c7.7 0 14 6.3 14 14V42h19.7V29.7c0-9.9-8-18-18-18z" fill="#D3431C"/><path d="M541.799 37.9h-49.5c-1.1 0-2 .9-2 2s.9 2 2 2h49.5c1.1 0 2-.9 2-2s-.9-2-2-2z" fill="#ECA85E"/><path d="M553.448 57.407l-14.321 7.358.914 1.78 14.321-7.359-.914-1.779zm2.317 8.866l-15.048 4.114.527 1.929 15.048-4.114-.527-1.929z" fill="#fff"/><path d="M540.898 65c-2.5 0-5-.4-7.4-1l-12.1-3.5c-1.4-.4-2.9-.4-4.3 0l-7.6 2.3v1.5c0 10 8.1 18.1 18.1 18.1 4.3 0 8.6-.9 12.6-2.5l2.9-1.2V65h-2.2z" fill="#7DD3E9"/><path d="M521.398 60.5l12.2 3.5c2.4.7 4.9 1 7.4 1h2.2v-2.8h-2.2c-2.5 0-5-.4-7.4-1l-12.2-3.5c-1.4-.4-2.9-.4-4.3 0l-7.6 2.3v2.8l7.6-2.3c1.4-.4 2.9-.4 4.3 0z" fill="#fff"/><path d="M553.298 71.4a7.4 7.4 0 100-14.8 7.4 7.4 0 000 14.8z" fill="#F2C9AD"/><path d="M553.298 67.9a3.9 3.9 0 100-7.8 3.9 3.9 0 000 7.8z" fill="#EBA58E"/><path d="M537.199 92.5l5.4 14 6.5-14-2.2-6.5-9.7 6.5zm-7.8 0l-3.6 11.7-3-11.7 2.1-6.5 4.5 6.5z" fill="#F0BF6C"/><path d="M529.399 92.5l4.4 7.8-6.1-2.2 1.7-5.6zm7.8 0l-3.4 7.8 5.8-1.6-2.4-6.2z" fill="#E8916A"/><path d="M502.499 92.5c-9.4 0-18.1 5-22.9 13.1l-12.8 21.6 30 2.7 5.7-37.4z" fill="#FF5823"/><path d="M472.797 196.9c1.2-1.3 2.4-2.5 3.6-3.8h-2.9c-.7 1.2-1 2.6-.7 3.8z" fill="#EBA58E"/><path d="M476.298 193.2c-1.2 1.3-2.4 2.5-3.6 3.8-.2-1.3.1-2.6.7-3.8h-4.4c.2 2.8 3 5.6 5.7 5.8 1.8.1 3.5-.6 4.9-1.6 1.4-1 2.9-2.8 4-4.2h-7.3z" fill="#F2C9AD"/><path d="M467.8 196.9c1.2-1.3 2.4-2.5 3.6-3.8h-2.9c-.6 1.2-.9 2.6-.7 3.8z" fill="#EBA58E"/><path d="M471.4 193.2c-1.2 1.3-2.4 2.5-3.6 3.8-.2-1.3.1-2.6.7-3.8h-4.4c.2 2.8 3 5.6 5.7 5.8 1.8.1 3.5-.6 4.9-1.6 1.4-1 2.9-2.8 4-4.2h-7.3z" fill="#F2C9AD"/><path d="M460.499 196.9c1.2-1.3 2.4-2.5 3.6-3.8h-2.9c-.6 1.2-.9 2.6-.7 3.8z" fill="#EBA58E"/><path d="M464.099 193.2c-1.2 1.3-2.4 2.5-3.6 3.8-.2-1.3.1-2.6.7-3.8h-4.4c.2 2.8 3 5.6 5.7 5.8 1.8.1 3.5-.6 4.9-1.6 1.4-1 2.9-2.8 4-4.2h-7.3z" fill="#F2C9AD"/><path d="M440.441 193.183h88v-88h-88v88z" fill="#F4D071"/><path d="M476.542 132.745h15.7v-27.5h-15.7v27.5z" fill="#FBEED1"/><path d="M568.798 105.2h-40.4v88h40.4v-88z" fill="#ECA85E"/><path d="M556 193.4l-13.2-11.6c-1.5.6-2.2 2.4-2.2 4s.8 3.2 1.9 4.4c1.1 1.2 2.4 2.1 3.8 3h-16.2c.2 1.1.8 2.1 1.6 2.9 1.1 1.2 2.6 2 4 2.8-.7 2.6.1 5.5 2.2 7.1.7.6 1.6 1 2.3 1.6 1 1 1.5 2.5 2.4 3.5 1.4 1.6 3.8 1.9 5.9 2 7.4.2 14.7-2.2 20.7-6.7l-13.2-13zm12.3-100.9c9.1 0 17.5 5.1 21.7 13.2l24.5 47.2c4.2 8 1.9 17.9-5.3 23.3l-40 30.1-13.2-13 37.9-31.6-21.3-39.7-4.3-29.5z" fill="#F2C9AD"/><path d="M593.799 106.9c-5.4-9-15.1-14.4-25.5-14.4l4.3 29.6 6.2 15.5 23.1-17.3-8.1-13.4z" fill="#FF5823"/><path d="M607.099 129l-5.3-8.7-23.1 17.3 3.4 8.4 25-17z" fill="#F0BF6C"/><path d="M584.5 144.4l18.9-12.8-15.7 18.8-3.2-6z" fill="#402C49"/><path d="M642.4 430.8H456.9c-1.8 0-3.3-1.5-3.3-3.3 0-1.8 1.5-3.3 3.3-3.3h185.4c1.8 0 3.3 1.5 3.3 3.3.1 1.8-1.4 3.3-3.2 3.3z" fill="#7DD3E9"/></svg>