<svg width="117" height="83" fill="none" xmlns="http://www.w3.org/2000/svg"><g clip-path="url(#clip0)"><path d="M29.776 2.516a15.054 15.054 0 0116.666 0c6.524 4.318 8.608 12.73 4.855 19.568L38.85 44.761a.847.847 0 01-1.482 0L24.921 22.084c-.153-.28-.297-.56-.43-.845h3.348l10.273 18.713 10.58-19.279c3.012-5.488 1.337-12.237-3.898-15.704a12.084 12.084 0 00-6.685-2.019c-2.328 0-4.653.676-6.684 2.022-2.517 1.664-4.21 4.088-4.955 6.765h-3.064c.803-3.647 2.991-6.984 6.37-9.22z" fill="#651FFF"/><path d="M46.443 2.514a15.064 15.064 0 00-16.665 0c-3.556 2.351-5.793 5.918-6.485 9.782h3.033c.656-2.9 2.407-5.55 5.1-7.331a12.092 12.092 0 016.684-2.017c2.328 0 4.653.675 6.685 2.02 4.198 2.776 6.105 7.662 5.142 12.317l2.76 1.254c1.534-5.998-.822-12.431-6.254-16.025z" fill="#FF5823"/><path d="M17.02 18.178h13.658v-2.86H.02v2.86h13.632V45.22h3.366V18.178z" fill="#651FFF"/><path d="M16.998 55.958h13.658v-2.86H0v2.86h13.631V83h3.367V55.958zm45.562 0h13.66v-2.86H45.563v2.86h13.63V83h3.367V55.958z" fill="#FF5823"/><path fill-rule="evenodd" clip-rule="evenodd" d="M32.344 15.23c0-3.311 2.713-6.008 6.047-6.008 3.335 0 6.047 2.697 6.047 6.009 0 3.311-2.714 6.008-6.047 6.008-3.334 0-6.047-2.697-6.047-6.008zm5.906 1.817a1.963 1.963 0 001.969-1.956c0-1.08-.882-1.956-1.969-1.956a1.962 1.962 0 00-1.969 1.956c0 1.08.882 1.956 1.969 1.956z" fill="#651FFF"/><path d="M28.637 53.098v16.987c.062 4.042.951 7.209 2.668 9.502C33.035 81.862 35.329 83 38.19 83c1.878 0 3.539-.528 4.982-1.584 1.455-1.073 2.581-2.603 3.377-4.587.796-1.983 1.2-4.313 1.213-6.99v-16.74H45V69.62c0 3.313-.653 5.898-1.96 7.755-1.293 1.856-2.611 2.784-4.85 2.784-2.24 0-3.706-.919-5.012-2.757-1.306-1.857-1.96-4.46-1.96-7.809V53.098h-2.581z" fill="#651FFF"/><path d="M64.096 26.862c-.076.642-.315 1.138-.717 1.488-.4.348-.933.521-1.598.521-.721 0-1.3-.257-1.736-.77-.434-.515-.65-1.203-.65-2.064v-.583c0-.564.1-1.06.302-1.488a2.26 2.26 0 01.863-.984 2.4 2.4 0 011.292-.346c.649 0 1.169.18 1.56.542.392.358.62.856.684 1.492h-.81c-.07-.483-.222-.834-.457-1.05-.232-.217-.558-.325-.977-.325-.514 0-.918.189-1.212.567-.29.377-.436.915-.436 1.613v.587c0 .659.138 1.182.415 1.571.277.39.664.584 1.162.584.447 0 .79-.1 1.027-.3.24-.203.4-.555.478-1.055h.81zm3.783 1.926c-.045-.089-.082-.247-.11-.475a1.73 1.73 0 01-1.291.559c-.447 0-.815-.126-1.103-.376a1.225 1.225 0 01-.428-.958c0-.47.18-.834.537-1.092.36-.261.867-.392 1.518-.392h.755V25.7c0-.27-.081-.484-.243-.642-.162-.161-.401-.242-.718-.242-.276 0-.508.07-.696.209-.187.139-.28.307-.28.504h-.78c0-.225.08-.442.239-.65.162-.211.38-.378.654-.5.276-.123.58-.184.91-.184.522 0 .932.13 1.229.392.296.259.45.616.46 1.071v2.076c0 .414.054.743.16.988v.066h-.813zm-1.288-.587c.244 0 .474-.063.692-.188a1.14 1.14 0 00.474-.488V26.6h-.608c-.95 0-1.426.276-1.426.83 0 .241.081.43.243.566a.94.94 0 00.625.205zm5.771-.434l1.543-3.489h.969v4.51h-.776v-3.28l-1.468 3.28h-.537l-1.497-3.351v3.35h-.776v-4.509h1.007l1.535 3.489zm4.607-1.934h1.178c.515.006.922.139 1.221.4.3.261.449.615.449 1.063 0 .45-.154.811-.461 1.083-.308.273-.722.409-1.242.409h-1.92v-4.51h.775v1.555zm4.467 2.955h-.78v-4.51h.78v4.51zm-4.467-2.326v1.696h1.154c.29 0 .515-.073.675-.22.159-.15.239-.355.239-.613a.835.835 0 00-.235-.613c-.154-.16-.37-.244-.65-.25h-1.183zm7.705 2.41c-.615 0-1.116-.2-1.501-.6-.386-.403-.58-.941-.58-1.613v-.142c0-.448.086-.846.257-1.196.173-.353.413-.628.721-.826.31-.2.646-.3 1.007-.3.59 0 1.048.193 1.375.58.327.386.49.939.49 1.658v.321H83.37c.011.445.14.805.39 1.08.251.272.57.408.956.408.274 0 .506-.055.696-.167.19-.11.356-.258.5-.441l.473.366c-.38.581-.95.872-1.711.872zm-.096-4.043c-.314 0-.576.114-.789.341-.212.226-.344.542-.394.95h2.273v-.058c-.022-.391-.129-.694-.319-.908-.19-.217-.447-.325-.771-.325zm8.605 3.959h-.776v-1.926h-2.084v1.926h-.78v-4.51h.78v1.955h2.084v-1.955h.776v4.51zm4.185-4.51h.776v4.51h-.776V25.5l-2.092 3.288H94.5v-4.51h.776v3.293l2.093-3.293zm4.517 1.234a.593.593 0 00-.243-.5c-.162-.125-.384-.188-.667-.188-.274 0-.503.071-.688.213-.181.142-.272.308-.272.5h-.772c0-.392.165-.713.495-.963.33-.25.742-.375 1.237-.375.532 0 .945.114 1.242.342.296.225.444.547.444.967a.936.936 0 01-.184.558c-.123.17-.298.305-.525.405.529.177.793.528.793 1.05 0 .414-.161.742-.482.983-.322.242-.751.363-1.288.363-.523 0-.955-.126-1.296-.38a1.228 1.228 0 01-.507-1.033h.772c0 .22.097.409.293.567.199.156.445.233.738.233.297 0 .535-.068.717-.204a.632.632 0 00.273-.53c0-.252-.077-.433-.231-.54-.151-.112-.387-.168-.708-.168h-.776v-.65h.843c.528-.014.792-.23.792-.65zm3.279 1.354h-.566v1.922h-.78v-4.51h.78v1.91h.508l1.526-1.91h.94l-1.795 2.168 1.946 2.342h-.986l-1.573-1.922zm6.161-2.588h.776v4.51h-.776V25.5l-2.092 3.288h-.776v-4.51h.776v3.293l2.092-3.293zm3.906 4.594c-.616 0-1.116-.2-1.502-.6-.386-.403-.579-.941-.579-1.613v-.142c0-.448.086-.846.256-1.196.174-.353.414-.628.722-.826.31-.2.645-.3 1.006-.3.59 0 1.049.193 1.376.58.327.386.49.939.49 1.658v.321h-3.074c.012.445.142.805.39 1.08.252.272.571.408.957.408.274 0 .506-.055.696-.167.19-.11.356-.258.499-.441l.474.366c-.381.581-.951.872-1.711.872zm-.097-4.043c-.313 0-.576.114-.788.341-.213.226-.344.542-.395.95h2.273v-.058c-.022-.391-.128-.694-.318-.908-.19-.217-.447-.325-.772-.325zm-55.585 9.436h.78v3.88h2.088v-3.88h.776v3.88h.541l-.075 1.968h-.696v-1.338h-3.414v-4.51zm6.908 4.593c-.615 0-1.116-.2-1.501-.6-.386-.403-.579-.94-.579-1.613v-.142c0-.447.085-.846.256-1.196.173-.353.413-.628.721-.825.31-.2.646-.3 1.007-.3.59 0 1.048.193 1.375.579.327.386.49.939.49 1.659v.32h-3.073c.01.445.14.805.39 1.08.251.272.57.408.956.408.274 0 .506-.055.696-.166.19-.111.357-.258.5-.442l.473.367c-.38.58-.95.87-1.71.87zm-.096-4.043c-.314 0-.576.114-.789.342-.212.225-.344.542-.394.95h2.273v-.058c-.022-.392-.129-.695-.319-.909-.19-.217-.447-.325-.771-.325zm6.474 3.96h-.775v-1.926h-2.085v1.926h-.78v-4.51h.78v1.955h2.085v-1.955h.775v4.51zm2.097-2.955h1.179c.514.005.92.139 1.22.4.299.261.449.615.449 1.063 0 .45-.154.811-.462 1.083-.307.272-.721.409-1.241.409h-1.92v-4.51h.775v1.555zm4.466 2.955h-.78v-4.51h.78v4.51zm-4.466-2.326v1.697h1.153c.291 0 .516-.074.676-.222.159-.15.239-.354.239-.612a.835.835 0 00-.235-.613c-.154-.161-.37-.244-.65-.25h-1.183zm11.659 2.326h-.776v-1.926h-2.084v1.926h-.78v-4.51h.78v1.955h2.084v-1.955h.776v4.51zm4.051 0c-.044-.09-.08-.248-.108-.476a1.736 1.736 0 01-1.292.559c-.448 0-.815-.125-1.103-.375a1.226 1.226 0 01-.428-.959c0-.47.179-.833.537-1.092.36-.26.867-.392 1.518-.392h.755v-.354c0-.27-.081-.483-.243-.642-.163-.16-.402-.241-.718-.241-.276 0-.508.07-.696.208-.187.139-.28.307-.28.504h-.78c0-.225.08-.442.238-.65.162-.211.38-.378.654-.5a2.23 2.23 0 01.91-.183c.523 0 .933.13 1.23.391.296.259.45.616.46 1.072v2.075c0 .414.054.743.16.988v.067h-.814zm-1.287-.588c.243 0 .474-.063.692-.188a1.14 1.14 0 00.474-.487v-.926h-.608c-.95 0-1.426.277-1.426.83 0 .242.08.43.243.567.162.136.37.204.625.204zm-26.501 6.69H61.33v3.884h-.776v-3.884h-1.492v-.626h3.79v.626zm2.302 3.968c-.615 0-1.115-.2-1.501-.6-.386-.403-.579-.941-.579-1.613v-.142c0-.448.085-.846.256-1.196.173-.353.414-.628.721-.825.31-.2.646-.3 1.007-.3.59 0 1.048.193 1.375.579.328.386.491.939.491 1.659v.32h-3.074c.011.445.141.805.39 1.08.252.272.57.408.956.408.274 0 .507-.055.697-.166.19-.111.356-.259.499-.442l.473.367c-.38.58-.95.87-1.71.87zm-.096-4.043c-.313 0-.576.114-.788.342-.213.225-.345.542-.395.95h2.273v-.059c-.022-.391-.128-.694-.318-.908-.19-.217-.448-.325-.772-.325zm4.29 1.096l1.006-1.647h.906l-1.485 2.23 1.531 2.28h-.897l-1.049-1.688-1.048 1.688h-.902l1.531-2.28-1.485-2.23h.898l.994 1.647zm6.446 2.863h-.775v-1.925h-2.085v1.925h-.78v-4.51h.78v1.955h2.085v-1.955h.775v4.51zm4.186-4.509h.776v4.51h-.776v-3.29l-2.093 3.29h-.776v-4.51h.776v3.292l2.093-3.292zm3.434 2.588h-.566v1.921h-.78v-4.51h.78v1.91h.508l1.526-1.91h.94l-1.795 2.168 1.946 2.342h-.986l-1.573-1.921zm4.71.792l1.057-3.38h.83l-1.824 5.205c-.282.75-.731 1.125-1.346 1.125l-.147-.012-.29-.054v-.626l.21.017c.263 0 .467-.053.612-.158.149-.106.27-.299.366-.58l.171-.458-1.618-4.46h.847l1.132 3.38z" fill="#FF5823"/><path d="M96.985 43.415h-1.968v5.404h-.803v-5.404H92.25v-.657h4.735v.657zm3.01 2.86l1.409-3.517h.937l-2.165 5.05c-.146.321-.282.55-.408.686a1.307 1.307 0 01-.445.308c-.169.07-.38.104-.636.104-.22 0-.363-.013-.424-.038l.025-.632.383.016c.294 0 .512-.14.655-.42l.106-.216.16-.37-2.086-4.488h.904l1.585 3.517zm7.621-2.86h-1.968v5.404h-.803v-5.404h-1.964v-.657h4.735v.657zm1.657 3.693h-.703l-.054-4.35h.815l-.058 4.35zm-.787 1.323c0-.124.038-.228.114-.312.078-.086.193-.129.344-.129.152 0 .267.043.345.13a.435.435 0 01.118.311.435.435 0 01-.118.313c-.078.08-.193.12-.345.12-.151 0-.266-.04-.344-.12a.445.445 0 01-.114-.313z" fill="#651FFF"/></g><defs><clipPath id="clip0"><path fill="#fff" d="M0 0h117v83H0z"/></clipPath></defs></svg>