<svg width="40" height="40" fill="none" xmlns="http://www.w3.org/2000/svg"><path d="M2.799 4.616h5.833l5.267 22.85h21.1l2.2-16.267h-27.05m7.534 19.834h-.016c-1.197 0-2.167.97-2.167 2.167v.017c0 1.196.97 2.166 2.167 2.166h.016c1.197 0 2.167-.97 2.167-2.166V33.2c0-1.197-.97-2.167-2.167-2.167z" stroke="#000" stroke-width="1.5" stroke-linecap="round" stroke-linejoin="round"/><path d="M17.683 31.033h-.016c-1.197 0-2.167.97-2.167 2.167v.017c0 1.196.97 2.166 2.167 2.166h.016c1.197 0 2.167-.97 2.167-2.166V33.2c0-1.197-.97-2.167-2.167-2.167zm11.432 0h-.017c-1.196 0-2.166.97-2.166 2.167v.017c0 1.196.97 2.166 2.166 2.166h.017c1.197 0 2.167-.97 2.167-2.166V33.2c0-1.197-.97-2.167-2.167-2.167z" stroke="#000" stroke-width="1.5" stroke-linecap="round" stroke-linejoin="round"/></svg>