<svg width="247" height="220" fill="none" xmlns="http://www.w3.org/2000/svg"><rect width="224" height="220" rx="110" fill="#651FFF"/><path d="M178.937 92.82l17.255 29.887-13.007-3.485a4.552 4.552 0 00-4.824 1.616 4.561 4.561 0 002.463 7.197l23.372 6.263a4.553 4.553 0 003.464-.454 4.55 4.55 0 002.125-2.772l6.263-23.372a4.563 4.563 0 00-8.814-2.362l-3.339 12.458-17.055-29.538a14.835 14.835 0 00-12.842-7.414 14.828 14.828 0 00-12.841 7.414l-14.159 24.524a4.563 4.563 0 107.903 4.562l14.158-24.523a5.707 5.707 0 017.791-2.088c.867.5 1.587 1.22 2.087 2.088zm57.293 80.985l-14.158-24.524a4.565 4.565 0 00-8.34 1.112 4.569 4.569 0 00.437 3.451l14.159 24.523a5.71 5.71 0 010 5.703 5.712 5.712 0 01-4.939 2.852h-33.528l9.32-9.321a4.56 4.56 0 00-3.226-7.788c-1.21 0-2.37.48-3.226 1.336l-17.109 17.109a4.561 4.561 0 000 6.453l17.109 17.109a4.562 4.562 0 106.452-6.452l-9.32-9.321h33.528a14.822 14.822 0 0012.841-7.414 14.822 14.822 0 000-14.828zm-82.763 13.117h-28.858a5.7 5.7 0 01-5.703-5.703c0-1.001.263-1.984.764-2.851l17.732-30.712 3.653 13.633a4.56 4.56 0 005.588 3.226 4.563 4.563 0 003.226-5.588l-6.263-23.372a4.561 4.561 0 00-5.589-3.226l-23.372 6.261a4.561 4.561 0 00-3.254 5.596 4.55 4.55 0 002.138 2.777 4.572 4.572 0 003.478.441l11.832-3.17-17.073 29.571a14.822 14.822 0 000 14.829 14.832 14.832 0 0012.843 7.413h28.858a4.561 4.561 0 003.226-7.788 4.562 4.562 0 00-3.226-1.337z" fill="#FF9800"/><path d="M218.25 108.29l-6.262 23.372a6.857 6.857 0 01-6.608 5.073 6.808 6.808 0 01-1.773-.234l-23.372-6.262a6.857 6.857 0 01-4.227-3.171 6.834 6.834 0 01-.709-5.236 6.85 6.85 0 013.232-4.181 6.85 6.85 0 015.246-.632l7.688 2.059-14.503-25.117a3.428 3.428 0 00-2.963-1.71 3.422 3.422 0 00-2.963 1.71l-14.158 24.524a6.847 6.847 0 01-9.349 2.505 6.842 6.842 0 01-2.505-9.349l14.158-24.524a17.112 17.112 0 0123.371-6.261 17.112 17.112 0 016.263 6.261l14.3 24.769 1.914-7.137a6.84 6.84 0 018.355-4.743 6.843 6.843 0 014.865 8.284zm19.958 81.484a16.94 16.94 0 01-14.817 8.554h-28.022l5.426 5.427a6.835 6.835 0 012.044 4.85 6.834 6.834 0 01-2.004 4.868 6.859 6.859 0 01-4.867 2.004 6.847 6.847 0 01-4.851-2.044l-17.109-17.109a6.851 6.851 0 010-9.679l17.109-17.109a6.846 6.846 0 019.639.039 6.841 6.841 0 01.039 9.639l-5.426 5.427h28.022a3.425 3.425 0 003.421-3.422c0-.601-.158-1.191-.458-1.711l-14.158-24.523a6.844 6.844 0 1111.851-6.844l14.161 24.523a16.946 16.946 0 010 17.11zm-77.897 1.71a6.85 6.85 0 01-6.843 6.844h-28.861c-3.003 0-5.954-.791-8.555-2.292a17.114 17.114 0 01-6.262-23.372l14.321-24.803-6.513 1.745a6.846 6.846 0 01-8.285-4.865 6.845 6.845 0 014.743-8.355l23.372-6.262a6.84 6.84 0 018.38 4.839l6.265 23.372a6.844 6.844 0 11-13.222 3.542l-2.228-8.313-14.979 25.944a3.423 3.423 0 002.963 5.133h28.861a6.85 6.85 0 016.843 6.843z" fill="#FF5823"/></svg>