<svg width="400" height="400" viewBox="0 0 400 400" fill="none" xmlns="http://www.w3.org/2000/svg">
<circle cx="200" cy="200" r="200" fill="#651FFF"/>
<path d="M166.666 250H33.3327C24.1279 250 16.666 257.462 16.666 266.667V366.667C16.666 375.871 24.1279 383.333 33.3327 383.333H166.666C175.871 383.333 183.333 375.871 183.333 366.667V266.667C183.333 257.462 175.871 250 166.666 250Z" stroke="#FF5823" stroke-width="6" stroke-linecap="round" stroke-linejoin="round"/>
<path d="M149.992 249.996V238.829C150.001 236.244 149.409 233.693 148.262 231.376C147.115 229.059 145.445 227.041 143.384 225.481C141.323 223.921 138.927 222.861 136.386 222.387C133.844 221.912 131.228 222.035 128.742 222.746L23.9922 252.829" stroke="#FF5823" stroke-width="6" stroke-linecap="round" stroke-linejoin="round"/>
<path d="M183.332 296.99H151.499C146.681 296.99 142.06 298.904 138.653 302.311C135.246 305.718 133.332 310.339 133.332 315.157C133.354 319.968 135.275 324.576 138.677 327.978C142.079 331.381 146.687 333.302 151.499 333.324H183.332" stroke="#FF5823" stroke-width="6" stroke-linecap="round" stroke-linejoin="round"/>
</svg>
