<svg width="658" height="431" viewBox="0 0 658 431" fill="none" xmlns="http://www.w3.org/2000/svg">
<path d="M146 348.4C146 327.9 129.4 311.3 108.9 311.3H101.9C92.1 311.3 82.6 307.4 75.6 300.4L57 281.8C50 274.8 40.6 270.9 30.7 270.9C13.8 270.9 0 257.2 0 240.2V235.1C0 215.4 16 199.4 35.7 199.4H65.3C72.3 199.4 77.9 193.7 77.9 186.8C77.9 179.8 72.2 174.2 65.3 174.2H49.3C39.2 174.2 31 166 31 155.9C31 145.8 39.2 137.6 49.3 137.6H171.8C180.4 137.6 187.4 130.6 187.4 122C187.4 113.4 180.4 106.4 171.8 106.4H156.8C139.4 106.4 125.3 92.3 125.3 74.9C125.3 57.5 139.4 43.4 156.8 43.4H199.7C219.3 43.4 238.2 35.6 252.1 21.7C266 7.8 284.8 0 304.5 0H335.2H413.8C430.3 0 446.2 6.6 457.9 18.3C469.6 30 485.4 36.6 502 36.6H616.8C628.6 36.6 638.1 46.1 638.1 57.9C638.1 69.7 628.6 79.2 616.8 79.2H585.7C571.1 79.2 559.3 91 559.3 105.6C559.3 120.2 571.1 132 585.7 132H623.5C642.3 132 657.5 147.2 657.5 166C657.5 184.8 642.3 200 623.5 200H563.7C549.6 200 538.2 211.4 538.2 225.5C538.2 239.6 549.6 251 563.7 251H594.7C611.5 251 625.1 264.6 625.1 281.4C625.1 298.2 611.5 311.8 594.7 311.8H551.1C528.3 311.8 506.5 320.9 490.3 337C474.2 353.1 452.3 362.2 429.5 362.2H414.3C403.1 362.2 392.4 366.6 384.5 374.6C376.5 382.6 365.6 387.1 354.3 387L182.8 385.6C162.5 385.4 146 368.8 146 348.4Z" fill="#651FFF"/>
<path d="M361.4 395.2C361.4 393.4 362.9 391.9 364.7 391.9H512C513.8 391.9 515.3 390.4 515.3 388.6C515.3 386.8 513.8 385.3 512 385.3H27.3996C25.5996 385.3 24.0996 386.8 24.0996 388.6C24.0996 390.4 25.5996 391.9 27.3996 391.9H145.5C147.3 391.9 148.8 393.4 148.8 395.2C148.8 397 147.3 398.5 145.5 398.5H79.7996C78.1996 398.5 76.8996 399.8 76.8996 401.4V402.2C76.8996 403.8 78.1996 405.1 79.7996 405.1H225.4C227.2 405.1 228.7 406.6 228.7 408.4C228.7 410.2 227.2 411.7 225.4 411.7H190.9C189.1 411.7 187.6 413.2 187.6 415C187.6 416.8 189.1 418.3 190.9 418.3H383C384.8 418.3 386.3 416.8 386.3 415C386.3 413.2 384.8 411.7 383 411.7H317C315.2 411.7 313.7 410.2 313.7 408.4C313.7 406.6 315.2 405.1 317 405.1H459.7C461.3 405.1 462.6 403.8 462.6 402.2V401.5C462.6 399.9 461.3 398.6 459.7 398.6H364.8C362.9 398.5 361.4 397 361.4 395.2Z" fill="#3E18A8"/>
<path d="M71.3004 336V353.7H55.9004V335.9L71.3004 336Z" fill="#21255C"/>
<path d="M232.499 336V353.7H189.199V335.9L232.499 336Z" fill="#21255C"/>
<path d="M201.099 293.101C194.999 293.101 189.999 311.701 189.199 335.901H212.899C212.099 311.701 207.099 293.101 201.099 293.101Z" fill="#21255C"/>
<path d="M238.199 300.4H202.799V385.2H238.199C243.799 385.2 248.399 366.2 248.399 342.8C248.399 319.4 243.799 300.4 238.199 300.4Z" fill="#21255C"/>
<path d="M202.8 385.2C208.433 385.2 213 366.217 213 342.8C213 319.384 208.433 300.4 202.8 300.4C197.166 300.4 192.6 319.384 192.6 342.8C192.6 366.217 197.166 385.2 202.8 385.2Z" fill="#495375"/>
<path d="M205.1 319.2C204.4 317.9 203.6 317.2 202.7 317.2C199.3 317.2 196.5 328.6 196.5 342.7C196.5 356.8 199.3 368.2 202.7 368.2C203.5 368.2 204.3 367.5 205.1 366.2C202.9 362.4 201.3 353.2 201.3 342.6C201.3 332 202.9 323.1 205.1 319.2Z" fill="#C7D2D7"/>
<path d="M205.099 319.2C202.899 323 201.299 332.2 201.299 342.8C201.299 353.4 202.899 362.5 205.099 366.4C207.299 362.6 208.899 353.4 208.899 342.8C208.899 332.2 207.399 323.1 205.099 319.2Z" fill="#99A3B0"/>
<path d="M430.199 300.4H394.799V385.2H430.199C435.799 385.2 440.399 366.2 440.399 342.8C440.399 319.4 435.899 300.4 430.199 300.4Z" fill="#21255C"/>
<path d="M394.8 385.2C400.433 385.2 405 366.217 405 342.8C405 319.384 400.433 300.4 394.8 300.4C389.166 300.4 384.6 319.384 384.6 342.8C384.6 366.217 389.166 385.2 394.8 385.2Z" fill="#495375"/>
<path d="M397.2 319.2C396.5 317.9 395.7 317.2 394.8 317.2C391.4 317.2 388.6 328.6 388.6 342.7C388.6 356.8 391.4 368.2 394.8 368.2C395.6 368.2 396.4 367.5 397.2 366.2C395 362.4 393.4 353.2 393.4 342.6C393.4 332 394.9 323.1 397.2 319.2Z" fill="#C7D2D7"/>
<path d="M397.2 319.2C395 323 393.4 332.2 393.4 342.8C393.4 353.4 395 362.5 397.2 366.4C399.4 362.6 401 353.4 401 342.8C401 332.2 399.4 323.1 397.2 319.2Z" fill="#99A3B0"/>
<path d="M67.7008 293.101C61.6008 293.101 56.6008 311.701 55.8008 335.901H79.5008C78.8008 311.701 73.8008 293.101 67.7008 293.101Z" fill="#21255C"/>
<path d="M476.4 73.9004H232.5V336H476.4V73.9004Z" fill="#7DD3E9"/>
<path d="M466.15 325.688L466.15 84.0884L242.65 84.0884L242.65 325.688H466.15Z" fill="#21255C"/>
<path d="M103.201 300.4H67.8008V385.2H103.201C108.801 385.2 113.401 366.2 113.401 342.8C113.401 319.4 108.801 300.4 103.201 300.4Z" fill="#21255C"/>
<path d="M67.7 385.2C73.3333 385.2 77.9 366.217 77.9 342.8C77.9 319.384 73.3333 300.4 67.7 300.4C62.0667 300.4 57.5 319.384 57.5 342.8C57.5 366.217 62.0667 385.2 67.7 385.2Z" fill="#495375"/>
<path d="M70.1 319.2C69.4 317.9 68.6 317.2 67.7 317.2C64.3 317.2 61.5 328.6 61.5 342.7C61.5 356.8 64.3 368.2 67.7 368.2C68.5 368.2 69.3 367.5 70.1 366.2C67.9 362.4 66.3 353.2 66.3 342.6C66.3 332 67.9 323.1 70.1 319.2Z" fill="#C7D2D7"/>
<path d="M70.1008 319.2C67.9008 323 66.3008 332.2 66.3008 342.8C66.3008 353.4 67.9008 362.5 70.1008 366.4C72.3008 362.6 73.9008 353.4 73.9008 342.8C73.9008 332.2 72.3008 323.1 70.1008 319.2Z" fill="#99A3B0"/>
<path d="M135.6 73.9004V336H189.2C190 311.8 195 293.2 201.1 293.2C207.2 293.2 212.2 311.8 213 336H232.6V73.9004H135.6Z" fill="#5FA5CC"/>
<path d="M135.6 135.5H91.9996C84.3996 135.5 77.8996 141.1 76.7996 148.7L65.6996 228.5L51.7996 242.8C47.1996 247.6 44.5996 253.9 44.5996 260.6V336H55.8996C56.6996 311.8 61.6996 293.201 67.7996 293.201C73.8996 293.201 78.8996 311.8 79.6996 336H135.7V135.5H135.6Z" fill="#E8916A"/>
<path d="M484.5 335.9H232.5V353.6H484.5V335.9Z" fill="#C7D2D7"/>
<path d="M232.5 335.9H213V353.7H232.5V335.9Z" fill="#99A3B0"/>
<path d="M135.6 335.9V336L79.5996 335.9V353.7H135.6H189.2V336L135.6 335.9Z" fill="#99A3B0"/>
<path d="M55.9 336V353.7H40.5V335.9L55.9 336Z" fill="#99A3B0"/>
<path d="M117.1 146.7H91.9996C89.9996 146.7 88.1996 148.2 87.9996 150.2L77.0996 228.4H117.2V146.7H117.1Z" fill="#7DD3E9"/>
<path d="M115.6 218.9C111.7 215 106.4 212.8 100.8 212.8H85.9996L93.3996 153.3C93.4996 152.3 94.3996 151.5 95.3996 151.5H117.1V146.7H91.9996C89.9996 146.7 88.1996 148.2 87.9996 150.2L77.0996 228.4H117.2V218.9H115.6Z" fill="#5FA5CC"/>
<path opacity="0.5" d="M112.201 217.6C106.901 213.4 103.801 207.1 103.801 200.3V151.5C103.801 150.4 104.701 149.5 105.801 149.5H112.101C113.201 149.5 114.101 150.4 114.101 151.5V216.7C114.201 217.7 113.001 218.3 112.201 217.6Z" fill="white"/>
<path d="M73.5984 221.101H65.3984V225.201H73.5984C74.6984 225.201 75.5984 224.301 75.5984 223.201C75.6984 222.101 74.6984 221.101 73.5984 221.101Z" fill="#495375"/>
<path d="M63.0992 199.601H52.3992C50.8992 199.601 49.6992 200.801 49.6992 202.301V226.301C49.6992 227.801 50.8992 229.001 52.3992 229.001H63.0992C64.5992 229.001 65.7992 227.801 65.7992 226.301V202.301C65.8992 200.801 64.5992 199.601 63.0992 199.601Z" fill="#495375"/>
<path d="M67.1988 199.601H56.4988C54.9988 199.601 53.7988 200.801 53.7988 202.301V226.301C53.7988 227.801 54.9988 229.001 56.4988 229.001H67.1988C68.6988 229.001 69.8988 227.801 69.8988 226.301V202.301C69.9988 200.801 68.6988 199.601 67.1988 199.601Z" fill="#7DD3E9"/>
<path d="M113.4 228.4V324.9C113.4 325.9 114.2 326.8 115.3 326.8C116.3 326.8 117.2 326 117.2 324.9V228.4H113.4Z" fill="#CC6164"/>
<path d="M50.5996 294.6C49.7996 294.6 49.0996 293.9 49.0996 293.1V261.7C49.0996 255.4 51.4996 249.5 55.8996 245C56.4996 244.4 57.4996 244.4 58.0996 245C58.6996 245.6 58.6996 246.6 58.0996 247.2C54.2996 251.1 52.1996 256.3 52.1996 261.8V293.2C52.0996 294 51.3996 294.6 50.5996 294.6Z" fill="#F7DD8C"/>
<path d="M60.8 243.6C60.4 243.6 60 243.5 59.7 243.2C59.1 242.6 59.1 241.6 59.7 241L62.7 237.9C63.3 237.3 64.3 237.3 64.9 237.9C65.5 238.5 65.5 239.5 64.9 240.1L61.9 243.2C61.6 243.4 61.2 243.6 60.8 243.6Z" fill="#F7DD8C"/>
<path d="M424.698 243.601H342.498V325.801H424.698V243.601Z" fill="#F4D071"/>
<path d="M390.899 243.601H376.299V269.301H390.899V243.601Z" fill="#FBEED1"/>
<path d="M342.598 243.601H324.898V325.801H342.598V243.601Z" fill="#ECA85E"/>
<path d="M392.8 174.3H323.5V243.6H392.8V174.3Z" fill="#F4D071"/>
<path d="M364.4 174.3H352V196H364.4V174.3Z" fill="#FBEED1"/>
<path d="M323.5 174.3H301.1V243.6H323.5V174.3Z" fill="#ECA85E"/>
<path d="M301.099 161.4H242.699V243.6H301.099V161.4Z" fill="#F4D071"/>
<path d="M267.299 161.4H252.699V187.1H267.299V161.4Z" fill="#FBEED1"/>
<path d="M301.099 243.601H242.699V229.101L301.099 243.601Z" fill="#ECA85E"/>
<path d="M324.899 243.601H242.699V325.801H324.899V243.601Z" fill="#F4D071"/>
<path d="M291.1 243.601H276.5V269.301H291.1V243.601Z" fill="#FBEED1"/>
<path d="M324.899 325.701H242.699V307.101L324.899 325.701Z" fill="#ECA85E"/>
<path d="M250 347.9H232.5V335.9H262C262 342.6 256.6 347.9 250 347.9Z" fill="#E8916A"/>
<path d="M467 347.9H484.5V335.9H455C455 342.6 460.4 347.9 467 347.9Z" fill="#E8916A"/>
<path d="M232.501 347.9C226.601 347.9 221.801 343.1 221.801 337.2V335.9H232.501V347.9Z" fill="#A34262"/>
<path d="M232.5 73.9004L135.6 294.6V335.9H155.5L232.5 172.8V73.9004Z" fill="#4494B7"/>
<path d="M214.8 142.101H132.6V149.001H214.8V142.101Z" fill="white"/>
<path d="M214.8 149H132.6V155.9H214.8V149Z" fill="#C7D2D7"/>
<path d="M214.799 142.101V149.001V155.901H220.599V149.001V142.101H214.799Z" fill="#99A3B0"/>
<path d="M214.8 216.3H132.6V223.2H214.8V216.3Z" fill="white"/>
<path d="M214.8 223.2H132.6V230.1H214.8V223.2Z" fill="#C7D2D7"/>
<path d="M214.799 216.3V223.2V230.1H220.599V223.2V216.3H214.799Z" fill="#99A3B0"/>
<path d="M506 187.5H525.9H544.1H563.5H574.6L603.9 399.6H573.4L549.7 230.9H530.1L540 399.6H509.5L495.4 187.5H506Z" fill="#3E4870"/>
<path d="M605.999 399.6H571.099L569.699 389.5H604.599L605.999 399.6Z" fill="#797C99"/>
<path d="M542 399.6H507.1L506.6 389.5H541.5L542 399.6Z" fill="#797C99"/>
<path d="M575.799 399.601H601.599L603.599 403.701C605.199 406.901 607.799 409.401 611.099 410.801C614.499 412.201 617.199 414.901 618.699 418.201H577.599L575.799 399.601Z" fill="#ECA85E"/>
<path d="M618.7 418.301C619 419.001 619.3 419.701 619.5 420.401L620.6 424.201H578.2L577.6 418.301H618.7Z" fill="#F4D071"/>
<path d="M499.899 409.401C505.199 408.101 509.699 404.701 512.399 399.901L512.599 399.601H537.799L540.199 418.201H487.799C490.499 413.901 494.899 410.701 499.899 409.401Z" fill="#ECA85E"/>
<path d="M487.8 418.301H540.1L540.8 424.201H485.1L486.2 421.401C486.7 420.201 487.2 419.201 487.8 418.301Z" fill="#F4D071"/>
<path d="M497 211.2H529.4L535 219.5C536.8 222.1 539.7 223.7 542.9 223.7C552.7 223.7 562.3 220.5 570.2 214.6L577.5 209.1L574.5 187.4H495.4L497 211.2Z" fill="#402C49"/>
<path d="M495.399 187.5H574.599L580.999 179.8L568.299 92.5H502.499L489.299 179.8L495.399 187.5Z" fill="#FF5823"/>
<path d="M524.898 86H546.898L537.198 92.5H529.398L524.898 86Z" fill="#E8916A"/>
<path d="M526.699 65.3003V92.5003L533.799 100.3L544.099 92.5003V65.3003H526.699Z" fill="#F2C9AD"/>
<path d="M536.799 82.9003C533.699 84.3003 530.099 84.6003 526.699 83.8003V65.3003H544.099V76.0003C542.499 79.0003 539.899 81.5003 536.799 82.9003Z" fill="#402C49"/>
<path d="M531.599 23.2002C543.199 23.2002 552.499 32.6002 552.499 44.1002V59.8002C552.499 71.4002 543.099 80.7002 531.599 80.7002C519.999 80.7002 510.699 71.3002 510.699 59.8002V44.2002C510.699 32.6002 519.999 23.2002 531.599 23.2002Z" fill="#F2C9AD"/>
<path d="M552.499 44.2003C552.499 32.6003 543.099 23.3003 531.599 23.3003C519.999 23.3003 510.699 32.7003 510.699 44.2003V48.5003H552.599V44.2003H552.499Z" fill="#EBA58E"/>
<path d="M527.099 51.3003C527.899 51.3003 528.499 51.9003 528.499 52.7003V54.5003C528.499 55.3003 527.899 55.9003 527.099 55.9003C526.299 55.9003 525.699 55.3003 525.699 54.5003V52.7003C525.799 51.9003 526.399 51.3003 527.099 51.3003Z" fill="#402C49"/>
<path d="M512.999 50.1001C513.599 50.1001 514.199 50.7001 514.199 51.5001V53.3001C514.199 54.1001 513.699 54.7001 512.999 54.7001C512.399 54.7001 511.799 54.1001 511.799 53.3001V51.5001C511.799 50.7001 512.399 50.1001 512.999 50.1001Z" fill="#402C49"/>
<path d="M516.398 60C518.198 60.5 520.098 60.7 521.998 60.7C521.598 61.2 521.098 61.8 520.498 62.2C519.898 62.6 519.198 62.8 518.598 62.6C517.998 62.5 517.598 62.1 517.198 61.6C516.798 61.1 516.598 60.6 516.398 60Z" fill="#EBA58E"/>
<path d="M516.199 65.9004C520.499 66.9004 525.099 67.0004 529.399 66.0004C528.999 68.0004 527.499 69.8004 525.699 70.8004C523.899 71.7004 521.599 71.8004 519.799 70.9004C517.999 70.1004 516.699 67.9004 516.199 65.9004Z" fill="white"/>
<path d="M528.5 45.6002C530.8 45.9002 532.7 47.2002 533.7 49.0002L522.6 47.6002C524.1 46.2002 526.2 45.3002 528.5 45.6002Z" fill="#6A3649"/>
<path d="M512.798 46.1001C511.798 46.3001 510.898 47.3001 510.498 48.6001L515.498 47.6001C514.698 46.5001 513.798 45.9001 512.798 46.1001Z" fill="#6A3649"/>
<path d="M549.799 61.4C547.699 61.5 545.299 61.4 543.999 59.8C543.199 58.8 542.999 57.4 542.899 56.1C542.399 50.3 541.799 44.5 541.299 38.7C539.099 40.6 504.199 35.9 512.099 26.3C514.999 22.8 518.499 19.8 522.499 17.6C526.399 15.3 530.999 14 535.499 14.5C539.999 15 544.399 17.6 546.499 21.6C550.199 21.4 554.299 23.7 556.399 26.8C558.499 29.9 559.299 33.8 559.199 37.5C559.099 41.2 558.299 44.9 557.499 48.6C556.899 51.1 556.399 53.5 555.399 55.8C554.399 58 552.299 61.3 549.799 61.4Z" fill="#6A3649"/>
<path d="M557.599 48.5004C558.399 44.8004 559.299 41.2004 559.299 37.4004C559.399 33.7004 558.599 29.8004 556.499 26.7004C554.399 23.6004 550.399 21.3004 546.599 21.5004C544.499 17.5004 540.099 15.0004 535.599 14.4004C531.099 13.9004 526.499 15.2004 522.599 17.5004C518.699 19.8004 515.099 22.7004 512.199 26.2004C504.299 35.9004 539.199 40.5004 541.399 38.6004C541.699 41.9004 541.999 45.2004 542.299 48.4004L557.599 48.5004Z" fill="#402C49"/>
<path d="M526.599 11.7002H523.199C515.499 11.7002 509.199 18.0002 509.199 25.7002V42.0002H540.599V25.7002C540.599 18.0002 534.299 11.7002 526.599 11.7002Z" fill="#F4D071"/>
<path d="M542.3 11.7002H526.6C534.3 11.7002 540.6 18.0002 540.6 25.7002V42.0002H560.3V29.7002C560.3 19.8002 552.3 11.7002 542.3 11.7002Z" fill="#D3431C"/>
<path d="M541.799 37.9004H492.299C491.199 37.9004 490.299 38.8004 490.299 39.9004C490.299 41.0004 491.199 41.9004 492.299 41.9004H541.799C542.899 41.9004 543.799 41.0004 543.799 39.9004C543.799 38.8004 542.899 37.9004 541.799 37.9004Z" fill="#ECA85E"/>
<path d="M553.448 57.4074L539.127 64.7651L540.041 66.5441L554.362 59.1864L553.448 57.4074Z" fill="white"/>
<path d="M555.765 66.273L540.717 70.3867L541.244 72.3159L556.292 68.2022L555.765 66.273Z" fill="white"/>
<path d="M540.898 65.0002C538.398 65.0002 535.898 64.6002 533.498 64.0002L521.398 60.5002C519.998 60.1002 518.498 60.1002 517.098 60.5002L509.498 62.8002V64.3002C509.498 74.3002 517.598 82.4002 527.598 82.4002C531.898 82.4002 536.198 81.5002 540.198 79.9002L543.098 78.7002V65.0002H540.898Z" fill="#7DD3E9"/>
<path d="M521.398 60.5004L533.598 64.0004C535.998 64.7004 538.498 65.0004 540.998 65.0004H543.198V62.2004H540.998C538.498 62.2004 535.998 61.8004 533.598 61.2004L521.398 57.7004C519.998 57.3004 518.498 57.3004 517.098 57.7004L509.498 60.0004V62.8004L517.098 60.5004C518.498 60.1004 519.998 60.1004 521.398 60.5004Z" fill="white"/>
<path d="M553.298 71.4001C557.385 71.4001 560.698 68.087 560.698 64.0001C560.698 59.9132 557.385 56.6001 553.298 56.6001C549.212 56.6001 545.898 59.9132 545.898 64.0001C545.898 68.087 549.212 71.4001 553.298 71.4001Z" fill="#F2C9AD"/>
<path d="M553.298 67.9001C555.452 67.9001 557.198 66.154 557.198 64.0001C557.198 61.8462 555.452 60.1001 553.298 60.1001C551.145 60.1001 549.398 61.8462 549.398 64.0001C549.398 66.154 551.145 67.9001 553.298 67.9001Z" fill="#EBA58E"/>
<path d="M537.199 92.5L542.599 106.5L549.099 92.5L546.899 86L537.199 92.5Z" fill="#F0BF6C"/>
<path d="M529.399 92.5L525.799 104.2L522.799 92.5L524.899 86L529.399 92.5Z" fill="#F0BF6C"/>
<path d="M529.399 92.5L533.799 100.3L527.699 98.1L529.399 92.5Z" fill="#E8916A"/>
<path d="M537.199 92.5L533.799 100.3L539.599 98.7L537.199 92.5Z" fill="#E8916A"/>
<path d="M502.499 92.5C493.099 92.5 484.399 97.5 479.599 105.6L466.799 127.2L496.799 129.9L502.499 92.5Z" fill="#FF5823"/>
<path d="M472.797 196.9C473.997 195.6 475.197 194.4 476.397 193.1H473.497C472.797 194.3 472.497 195.7 472.797 196.9Z" fill="#EBA58E"/>
<path d="M476.298 193.2C475.098 194.5 473.898 195.7 472.698 197C472.498 195.7 472.798 194.4 473.398 193.2H468.998C469.198 196 471.998 198.8 474.698 199C476.498 199.1 478.198 198.4 479.598 197.4C480.998 196.4 482.498 194.6 483.598 193.2H476.298Z" fill="#F2C9AD"/>
<path d="M467.8 196.9C469 195.6 470.2 194.4 471.4 193.1H468.5C467.9 194.3 467.6 195.7 467.8 196.9Z" fill="#EBA58E"/>
<path d="M471.4 193.2C470.2 194.5 469 195.7 467.8 197C467.6 195.7 467.9 194.4 468.5 193.2H464.1C464.3 196 467.1 198.8 469.8 199C471.6 199.1 473.3 198.4 474.7 197.4C476.1 196.4 477.6 194.6 478.7 193.2H471.4Z" fill="#F2C9AD"/>
<path d="M460.499 196.9C461.699 195.6 462.899 194.4 464.099 193.1H461.199C460.599 194.3 460.299 195.7 460.499 196.9Z" fill="#EBA58E"/>
<path d="M464.099 193.2C462.899 194.5 461.699 195.7 460.499 197C460.299 195.7 460.599 194.4 461.199 193.2H456.799C456.999 196 459.799 198.8 462.499 199C464.299 199.1 465.999 198.4 467.399 197.4C468.799 196.4 470.299 194.6 471.399 193.2H464.099Z" fill="#F2C9AD"/>
<path d="M440.441 193.183H528.441V105.183L440.441 105.183V193.183Z" fill="#F4D071"/>
<path d="M476.542 132.745H492.242V105.245H476.542V132.745Z" fill="#FBEED1"/>
<path d="M568.798 105.2H528.398V193.2H568.798V105.2Z" fill="#ECA85E"/>
<path d="M556 193.4L542.8 181.8C541.3 182.4 540.6 184.2 540.6 185.8C540.6 187.4 541.4 189 542.5 190.2C543.6 191.4 544.9 192.3 546.3 193.2H530.1C530.3 194.3 530.9 195.3 531.7 196.1C532.8 197.3 534.3 198.1 535.7 198.9C535 201.5 535.8 204.4 537.9 206C538.6 206.6 539.5 207 540.2 207.6C541.2 208.6 541.7 210.1 542.6 211.1C544 212.7 546.4 213 548.5 213.1C555.9 213.3 563.2 210.9 569.2 206.4L556 193.4Z" fill="#F2C9AD"/>
<path d="M568.3 92.5C577.4 92.5 585.8 97.6 590 105.7L614.5 152.9C618.7 160.9 616.4 170.8 609.2 176.2L569.2 206.3L556 193.3L593.9 161.7L572.6 122L568.3 92.5Z" fill="#F2C9AD"/>
<path d="M593.799 106.9C588.399 97.9 578.699 92.5 568.299 92.5L572.599 122.1L578.799 137.6L601.899 120.3L593.799 106.9Z" fill="#FF5823"/>
<path d="M607.099 129L601.799 120.3L578.699 137.6L582.099 146L607.099 129Z" fill="#F0BF6C"/>
<path d="M584.5 144.4L603.4 131.6L587.7 150.4L584.5 144.4Z" fill="#402C49"/>
<path d="M642.4 430.8H456.9C455.1 430.8 453.6 429.3 453.6 427.5C453.6 425.7 455.1 424.2 456.9 424.2H642.3C644.1 424.2 645.6 425.7 645.6 427.5C645.7 429.3 644.2 430.8 642.4 430.8Z" fill="#7DD3E9"/>
</svg>
