<svg width="117" height="83" viewBox="0 0 117 83" fill="none" xmlns="http://www.w3.org/2000/svg">
<g clip-path="url(#clip0)">
<path d="M29.7765 2.5164C34.8364 -0.8388 41.3786 -0.8388 46.4416 2.5164C52.9658 6.83361 55.0504 15.2467 51.2969 22.084L38.8499 44.7608C38.5301 45.3434 37.688 45.3434 37.3682 44.7608L24.9211 22.084C24.7679 21.8048 24.6244 21.5231 24.4905 21.2391H27.8389L38.1121 39.9518L48.6925 20.6734C51.7038 15.1847 50.029 8.43596 44.7935 4.96863C42.7623 3.62299 40.4372 2.95019 38.109 2.95019C35.7809 2.95019 33.4558 3.62596 31.4246 4.97156C28.9085 6.63645 27.2156 9.05983 26.4698 11.7374H23.4062C24.2087 8.09004 26.3974 4.75339 29.7765 2.5164Z" fill="#651FFF"/>
<path d="M46.4427 2.51433C41.3827 -0.83811 34.8406 -0.83811 29.7775 2.51433C26.222 4.86523 23.985 8.43165 23.293 12.2963H26.326C26.9816 9.39655 28.7327 6.74673 31.4256 4.96452C33.4568 3.62003 35.7819 2.94776 38.1101 2.94776C40.4383 2.94776 42.7634 3.62296 44.7946 4.96748C48.9933 7.74354 50.8999 12.6303 49.9375 17.2855L52.6963 18.5387C54.2308 12.5412 51.8753 6.10777 46.4427 2.51433Z" fill="#FF5823"/>
<path d="M17.0193 18.1784H30.6777V15.3179H0.0214844V18.1784H13.6526V45.2201H17.0193V18.1784Z" fill="#651FFF"/>
<path d="M16.9978 55.9582H30.6563V53.0977H0V55.9582H13.6311V83H16.9978V55.9582Z" fill="#FF5823"/>
<path d="M62.5604 55.9582H76.2188V53.0977H45.5625V55.9582H59.1936V83H62.5604V55.9582Z" fill="#FF5823"/>
<path fill-rule="evenodd" clip-rule="evenodd" d="M32.3438 15.2306C32.3438 11.9187 35.0575 9.22217 38.3906 9.22217C41.726 9.22217 44.4375 11.9187 44.4375 15.2306C44.4375 18.5424 41.7237 21.239 38.3906 21.239C35.0575 21.239 32.3438 18.5424 32.3438 15.2306ZM38.25 17.0471C39.3373 17.0471 40.2188 16.1713 40.2188 15.0909C40.2188 14.0105 39.3373 13.1347 38.25 13.1347C37.1627 13.1347 36.2813 14.0105 36.2813 15.0909C36.2813 16.1713 37.1627 17.0471 38.25 17.0471Z" fill="#651FFF"/>
<path d="M28.6367 53.0977V70.0855C28.6989 74.1266 29.5885 77.2937 31.3049 79.5872C33.0341 81.8623 35.3291 83 38.1899 83C40.0684 83 41.7289 82.4721 43.1717 81.4163C44.6272 80.3426 45.753 78.8134 46.549 76.8295C47.3452 74.8456 47.7494 72.5157 47.7617 69.8399V53.0977H44.9999V69.6214C44.9999 72.9344 44.3468 75.5188 43.0407 77.3756C41.7469 79.2323 40.429 80.1604 38.1899 80.1604C35.9509 80.1604 34.4839 79.2413 33.1778 77.403C31.8717 75.5462 31.2186 72.9433 31.2186 69.5943V53.0977H28.6367Z" fill="#651FFF"/>
<path d="M64.0959 26.8623C64.0202 27.5042 63.7812 28.0002 63.3787 28.3501C62.9788 28.6975 62.4461 28.8713 61.7809 28.8713C61.0595 28.8713 60.4807 28.6142 60.0445 28.1003C59.6111 27.5861 59.3945 26.8985 59.3945 26.0371V25.4536C59.3945 24.8896 59.4952 24.3936 59.6966 23.9657C59.9005 23.5379 60.1885 23.21 60.5603 22.9821C60.9321 22.7515 61.3627 22.6362 61.8521 22.6362C62.5007 22.6362 63.0207 22.8168 63.4122 23.178C63.8037 23.5365 64.0315 24.0338 64.0959 24.6701H63.2865C63.2164 24.1866 63.064 23.8365 62.8292 23.6198C62.5971 23.4031 62.2714 23.2947 61.8521 23.2947C61.3377 23.2947 60.9335 23.4837 60.6402 23.8616C60.3494 24.2394 60.204 24.7771 60.204 25.4745V26.0621C60.204 26.7206 60.3423 27.2444 60.6191 27.6334C60.8958 28.0223 61.2831 28.2168 61.7809 28.2168C62.2281 28.2168 62.5707 28.1167 62.8083 27.9168C63.0488 27.714 63.208 27.3625 63.2865 26.8623H64.0959Z" fill="#FF5823"/>
<path d="M67.8787 28.7881C67.834 28.6992 67.7974 28.541 67.7696 28.313C67.409 28.6855 66.9785 28.8716 66.4778 28.8716C66.0306 28.8716 65.6628 28.7464 65.375 28.4963C65.0899 28.2437 64.9473 27.9241 64.9473 27.5378C64.9473 27.0683 65.1261 26.7043 65.4839 26.4459C65.8447 26.1847 66.3507 26.0541 67.0021 26.0541H67.7569V25.6998C67.7569 25.4303 67.6759 25.2164 67.5137 25.058C67.3517 24.8969 67.1126 24.8163 66.7965 24.8163C66.5197 24.8163 66.2877 24.8858 66.1004 25.0247C65.9131 25.1636 65.8194 25.3317 65.8194 25.529H65.0395C65.0395 25.3039 65.1191 25.0872 65.2786 24.8788C65.4406 24.6677 65.6588 24.5009 65.9328 24.3787C66.2095 24.2564 66.5127 24.1953 66.8429 24.1953C67.3654 24.1953 67.7752 24.3259 68.0717 24.5871C68.3678 24.8455 68.5217 25.2025 68.5329 25.6582V27.7337C68.5329 28.1478 68.5861 28.477 68.6921 28.7216V28.7881H67.8787ZM66.5912 28.2006C66.8345 28.2006 67.0651 28.138 67.283 28.0128C67.5013 27.8879 67.6591 27.7254 67.7569 27.5253V26.6001H67.1489C66.1983 26.6001 65.723 26.8765 65.723 27.4295C65.723 27.6712 65.804 27.8601 65.9662 27.9964C66.1285 28.1324 66.3366 28.2006 66.5912 28.2006Z" fill="#FF5823"/>
<path d="M72.3617 27.7668L73.9049 24.2783H74.8738V28.7877H74.0978V25.5078L72.63 28.7877H72.0931L70.596 25.437V28.7877H69.8203V24.2783H70.8266L72.3617 27.7668Z" fill="#FF5823"/>
<path d="M76.969 25.8329H78.1475C78.6622 25.8385 79.0689 25.9718 79.3681 26.233C79.6671 26.4942 79.8167 26.8484 79.8167 27.2958C79.8167 27.7459 79.6629 28.107 79.3555 28.3794C79.0478 28.6516 78.6341 28.7877 78.114 28.7877H76.1934V24.2783H76.969V25.8329ZM81.4356 28.7877H80.6554V24.2783H81.4356V28.7877ZM76.969 26.4622V28.1584H78.1225C78.4133 28.1584 78.6383 28.0849 78.7977 27.9376C78.9569 27.7876 79.0368 27.5834 79.0368 27.325C79.0368 27.0749 78.9583 26.8707 78.802 26.7123C78.6481 26.5512 78.4313 26.4678 78.1517 26.4622H76.969Z" fill="#FF5823"/>
<path d="M84.6739 28.8716C84.0588 28.8716 83.5584 28.6715 83.1726 28.2713C82.7867 27.8685 82.5938 27.3308 82.5938 26.6585V26.5167C82.5938 26.0694 82.6793 25.6707 82.8497 25.3206C83.0229 24.9677 83.2634 24.6926 83.5711 24.4954C83.8813 24.2953 84.2168 24.1953 84.5777 24.1953C85.1675 24.1953 85.6259 24.3884 85.953 24.7746C86.2804 25.1608 86.4438 25.7138 86.4438 26.4334V26.7543H83.3697C83.381 27.1989 83.5109 27.5587 83.7598 27.8338C84.0112 28.1062 84.3302 28.2423 84.7161 28.2423C84.99 28.2423 85.222 28.1867 85.4122 28.0754C85.6023 27.9642 85.7685 27.8171 85.9111 27.6337L86.385 28.0005C86.0048 28.5813 85.4344 28.8716 84.6739 28.8716ZM84.5777 24.8288C84.2644 24.8288 84.0017 24.9427 83.7891 25.1705C83.5767 25.3956 83.4451 25.7124 83.395 26.1208H85.6678V26.0625C85.6456 25.6707 85.5393 25.3678 85.3492 25.1539C85.159 24.9372 84.902 24.8288 84.5777 24.8288Z" fill="#FF5823"/>
<path d="M93.1832 28.7877H92.4072V26.8623H90.3229V28.7877H89.543V24.2783H90.3229V26.233H92.4072V24.2783H93.1832V28.7877Z" fill="#FF5823"/>
<path d="M97.3685 24.2783H98.1444V28.7877H97.3685V25.4995L95.2757 28.7877H94.5V24.2783H95.2757V27.5709L97.3685 24.2783Z" fill="#FF5823"/>
<path d="M101.885 25.512C101.885 25.3009 101.804 25.1342 101.642 25.0119C101.48 24.8869 101.258 24.8244 100.975 24.8244C100.701 24.8244 100.472 24.8952 100.287 25.0369C100.106 25.1786 100.015 25.3453 100.015 25.5371H99.243C99.243 25.1453 99.4081 24.8244 99.738 24.5743C100.068 24.3242 100.48 24.1992 100.975 24.1992C101.507 24.1992 101.92 24.3131 102.217 24.541C102.513 24.766 102.661 25.0883 102.661 25.5079C102.661 25.7107 102.599 25.8969 102.477 26.0664C102.354 26.2358 102.179 26.3706 101.952 26.4706C102.481 26.6485 102.745 26.9986 102.745 27.5209C102.745 27.9349 102.584 28.2627 102.263 28.5044C101.941 28.7462 101.512 28.8672 100.975 28.8672C100.452 28.8672 100.02 28.7406 99.6792 28.4879C99.3409 28.2322 99.1719 27.8877 99.1719 27.4542H99.9436C99.9436 27.6737 100.041 27.8627 100.237 28.021C100.436 28.1766 100.682 28.2543 100.975 28.2543C101.272 28.2543 101.51 28.1864 101.692 28.0503C101.874 27.9141 101.965 27.7376 101.965 27.5209C101.965 27.2681 101.888 27.0875 101.734 26.9791C101.583 26.868 101.347 26.8124 101.026 26.8124H100.25V26.1622H101.093C101.621 26.1483 101.885 25.9316 101.885 25.512Z" fill="#FF5823"/>
<path d="M105.164 26.8665H104.598V28.7877H103.818V24.2783H104.598V26.1872H105.106L106.632 24.2783H107.572L105.777 26.4456L107.723 28.7877H106.737L105.164 26.8665Z" fill="#FF5823"/>
<path d="M111.325 24.2783H112.101V28.7877H111.325V25.4995L109.233 28.7877H108.457V24.2783H109.233V27.5709L111.325 24.2783Z" fill="#FF5823"/>
<path d="M115.231 28.8716C114.615 28.8716 114.115 28.6715 113.729 28.2713C113.343 27.8685 113.15 27.3308 113.15 26.6585V26.5167C113.15 26.0694 113.236 25.6707 113.406 25.3206C113.58 24.9677 113.82 24.6926 114.128 24.4954C114.438 24.2953 114.773 24.1953 115.134 24.1953C115.724 24.1953 116.183 24.3884 116.51 24.7746C116.837 25.1608 117 25.7138 117 26.4334V26.7543H113.926C113.938 27.1989 114.068 27.5587 114.316 27.8338C114.568 28.1062 114.887 28.2423 115.273 28.2423C115.547 28.2423 115.779 28.1867 115.969 28.0754C116.159 27.9642 116.325 27.8171 116.468 27.6337L116.942 28.0005C116.561 28.5813 115.991 28.8716 115.231 28.8716ZM115.134 24.8288C114.821 24.8288 114.558 24.9427 114.346 25.1705C114.133 25.3956 114.002 25.7124 113.951 26.1208H116.224V26.0625C116.202 25.6707 116.096 25.3678 115.906 25.1539C115.716 24.9372 115.459 24.8288 115.134 24.8288Z" fill="#FF5823"/>
<path d="M59.5488 34.2651H60.3287V38.1455H62.4173V34.2651H63.1933V38.1455H63.7341L63.6587 40.1126H62.9626V38.7748H59.5488V34.2651Z" fill="#FF5823"/>
<path d="M66.4571 38.8579C65.842 38.8579 65.3414 38.6578 64.9555 38.2576C64.5699 37.8549 64.377 37.3172 64.377 36.6448V36.5031C64.377 36.0557 64.4622 35.6569 64.6326 35.307C64.8061 34.9541 65.0463 34.6791 65.354 34.4818C65.6642 34.2817 65.9998 34.1816 66.3606 34.1816C66.9504 34.1816 67.4091 34.3747 67.7362 34.761C68.0633 35.1472 68.2267 35.7 68.2267 36.4196V36.7407H65.1526C65.1639 37.1853 65.2938 37.545 65.5427 37.82C65.7945 38.0924 66.1131 38.2285 66.499 38.2285C66.7729 38.2285 67.005 38.1729 67.1951 38.0617C67.3852 37.9507 67.5517 37.8035 67.6943 37.6201L68.1679 37.9868C67.788 38.5675 67.2176 38.8579 66.4571 38.8579ZM66.3606 34.8152C66.0473 34.8152 65.7846 34.9289 65.572 35.157C65.3596 35.3819 65.2283 35.6986 65.178 36.1071H67.451V36.0487C67.4285 35.6569 67.3222 35.3543 67.1321 35.1402C66.942 34.9233 66.6849 34.8152 66.3606 34.8152Z" fill="#FF5823"/>
<path d="M72.8355 38.7748H72.0596V36.8493H69.9752V38.7748H69.1953V34.2651H69.9752V36.22H72.0596V34.2651H72.8355V38.7748Z" fill="#FF5823"/>
<path d="M74.9319 35.8198H76.1107C76.6251 35.8254 77.0318 35.9587 77.331 36.22C77.63 36.481 77.7796 36.8353 77.7796 37.2828C77.7796 37.7327 77.626 38.094 77.3183 38.3662C77.0109 38.6384 76.5969 38.7748 76.0769 38.7748H74.1562V34.2651H74.9319V35.8198ZM79.3985 38.7748H78.6186V34.2651H79.3985V38.7748ZM74.9319 36.4491V38.1455H76.0853C76.3762 38.1455 76.6012 38.0717 76.7606 37.9244C76.9198 37.7743 76.9997 37.5703 76.9997 37.3118C76.9997 37.0617 76.9212 36.8574 76.7648 36.6992C76.611 36.538 76.3944 36.4547 76.1146 36.4491H74.9319Z" fill="#FF5823"/>
<path d="M86.5914 38.7748H85.8154V36.8493H83.7311V38.7748H82.9512V34.2651H83.7311V36.22H85.8154V34.2651H86.5914V38.7748Z" fill="#FF5823"/>
<path d="M90.6424 38.7746C90.5977 38.6854 90.5614 38.5273 90.5336 38.2992C90.1727 38.6717 89.7421 38.8579 89.2418 38.8579C88.7943 38.8579 88.4267 38.7327 88.1387 38.4828C87.8535 38.2299 87.7109 37.9105 87.7109 37.5243C87.7109 37.0545 87.8898 36.6906 88.2478 36.4321C88.6084 36.1711 89.1146 36.0403 89.766 36.0403H90.5209V35.6863C90.5209 35.4166 90.4399 35.2028 90.2776 35.0443C90.1153 34.8831 89.8763 34.8026 89.5604 34.8026C89.2837 34.8026 89.0517 34.8722 88.8643 35.0111C88.677 35.15 88.5834 35.3179 88.5834 35.5152H87.8032C87.8032 35.2903 87.8831 35.0734 88.0422 34.8652C88.2045 34.6539 88.4225 34.4874 88.6964 34.365C88.9735 34.2428 89.2767 34.1816 89.6066 34.1816C90.1294 34.1816 90.5389 34.3121 90.8353 34.5734C91.1318 34.8317 91.2856 35.1888 91.2966 35.6446V37.7199C91.2966 38.1341 91.3497 38.4633 91.4561 38.7078V38.7746H90.6424ZM89.3551 38.1869C89.5981 38.1869 89.8287 38.1243 90.047 37.9994C90.265 37.8742 90.423 37.7118 90.5209 37.5117V36.5864H89.9128C88.9622 36.5864 88.4869 36.8628 88.4869 37.4158C88.4869 37.6576 88.5679 37.8465 88.7302 37.9826C88.8922 38.1187 89.1006 38.1869 89.3551 38.1869Z" fill="#FF5823"/>
<path d="M62.8537 44.8766H61.3313V48.7611H60.5554V44.8766H59.0625V44.2515H62.8537V44.8766Z" fill="#FF5823"/>
<path d="M65.1563 48.8447C64.5412 48.8447 64.0409 48.6446 63.655 48.2447C63.2691 47.8417 63.0762 47.304 63.0762 46.6316V46.4899C63.0762 46.0425 63.1614 45.6437 63.3321 45.2938C63.5054 44.9409 63.7458 44.6659 64.0532 44.4686C64.3637 44.2685 64.6993 44.1685 65.0598 44.1685C65.6499 44.1685 66.1083 44.3616 66.4354 44.7478C66.7625 45.134 66.9262 45.687 66.9262 46.4067V46.7275H63.8521C63.8631 47.1721 63.9933 47.5318 64.242 47.807C64.4937 48.0792 64.8123 48.2153 65.1982 48.2153C65.4721 48.2153 65.7045 48.1597 65.8946 48.0488C66.0847 47.9375 66.2509 47.7903 66.3935 47.6069L66.8674 47.9736C66.4872 48.5543 65.9168 48.8447 65.1563 48.8447ZM65.0598 44.802C64.7468 44.802 64.4838 44.916 64.2715 45.1438C64.0589 45.3687 63.9275 45.6857 63.8772 46.0939H66.1502V46.0355C66.128 45.6437 66.0217 45.3411 65.8316 45.127C65.6415 44.9104 65.3841 44.802 65.0598 44.802Z" fill="#FF5823"/>
<path d="M69.3496 45.8978L70.3562 44.2515H71.2621L69.7774 46.4813L71.3083 48.7611H70.4108L69.3623 47.0732L68.3138 48.7611H67.4121L68.943 46.4813L67.4582 44.2515H68.356L69.3496 45.8978Z" fill="#FF5823"/>
<path d="M75.7965 48.7611H75.0208V46.8356H72.9364V48.7611H72.1562V44.2515H72.9364V46.2063H75.0208V44.2515H75.7965V48.7611Z" fill="#FF5823"/>
<path d="M79.982 44.2515H80.7577V48.7611H79.982V45.4727L77.8893 48.7611H77.1133V44.2515H77.8893V47.5441L79.982 44.2515Z" fill="#FF5823"/>
<path d="M83.4164 46.8398H82.8502V48.7611H82.0703V44.2515H82.8502V46.1605H83.3576L84.8842 44.2515H85.8236L84.0287 46.4187L85.9746 48.7611H84.9891L83.4164 46.8398Z" fill="#FF5823"/>
<path d="M88.1259 47.6315L89.1829 44.2515H90.0134L88.1889 49.457C87.9065 50.2073 87.458 50.5824 86.8429 50.5824L86.696 50.5698L86.4066 50.5156V49.8904L86.6162 49.9072C86.8791 49.9072 87.0833 49.8544 87.2285 49.7487C87.3767 49.6431 87.4985 49.45 87.5935 49.1694L87.7654 48.7111L86.1465 44.2515H86.9936L88.1259 47.6315Z" fill="#FF5823"/>
<path d="M96.9848 43.4154H95.0169V48.8185H94.2137V43.4154H92.25V42.7578H96.9848V43.4154Z" fill="#651FFF"/>
<path d="M99.9952 46.2751L101.404 42.7578H102.341L100.176 47.8071C100.03 48.1291 99.8942 48.3579 99.768 48.4938C99.642 48.6271 99.4935 48.7296 99.3225 48.802C99.1543 48.8713 98.9425 48.906 98.6874 48.906C98.4661 48.906 98.3243 48.8934 98.2627 48.8685L98.288 48.2358L98.6705 48.2523C98.965 48.2523 99.1835 48.1123 99.3264 47.832L99.4316 47.6157L99.5913 47.2451L97.5059 42.7578H98.4098L99.9952 46.2751Z" fill="#651FFF"/>
<path d="M107.616 43.4154H105.648V48.8185H104.845V43.4154H102.881V42.7578H107.616V43.4154Z" fill="#651FFF"/>
<path d="M109.273 47.1076H108.57L108.516 42.7578H109.331L109.273 47.1076ZM108.486 48.4314C108.486 48.3065 108.524 48.2026 108.6 48.1193C108.678 48.0332 108.793 47.9902 108.944 47.9902C109.096 47.9902 109.211 48.0332 109.289 48.1193C109.368 48.2026 109.407 48.3065 109.407 48.4314C109.407 48.5564 109.368 48.6603 109.289 48.7436C109.211 48.8241 109.096 48.8643 108.944 48.8643C108.793 48.8643 108.678 48.8241 108.6 48.7436C108.524 48.6603 108.486 48.5564 108.486 48.4314Z" fill="#651FFF"/>
</g>
<defs>
<clipPath id="clip0">
<rect width="117" height="83" fill="white"/>
</clipPath>
</defs>
</svg>
