<svg width="40" height="40" viewBox="0 0 40 40" fill="none" xmlns="http://www.w3.org/2000/svg">
<path fill-rule="evenodd" clip-rule="evenodd" d="M22.182 8.15032C23.7733 6.55902 25.9316 5.66504 28.182 5.66504C30.4325 5.66504 32.5907 6.55902 34.182 8.15032C35.7733 9.74162 36.6673 11.8999 36.6673 14.1503C36.6673 16.4008 35.7733 18.559 34.182 20.1503L31.9987 22.3337L19.9987 34.3337L7.99869 22.3337L5.81536 20.1503C4.22406 18.559 3.33008 16.4008 3.33008 14.1503C3.33008 11.8999 4.22406 9.74162 5.81536 8.15032C7.40666 6.55902 9.56492 5.66504 11.8154 5.66504C14.0658 5.66504 16.2241 6.55902 17.8154 8.15032L19.9987 10.3337L22.182 8.15032Z" stroke="black" stroke-width="1.5" stroke-linecap="round" stroke-linejoin="round"/>
</svg>
