<svg width="40" height="40" viewBox="0 0 40 40" fill="none" xmlns="http://www.w3.org/2000/svg">
<path d="M2.79883 4.61621H8.63216L13.8988 27.4662H34.9988L37.1988 11.1995H10.1488" stroke="black" stroke-width="1.5" stroke-linecap="round" stroke-linejoin="round"/>
<path d="M17.6833 31.0332H17.6667C16.47 31.0332 15.5 32.0033 15.5 33.1999V33.2165C15.5 34.4132 16.47 35.3832 17.6667 35.3832H17.6833C18.8799 35.3832 19.85 34.4132 19.85 33.2165V33.1999C19.85 32.0033 18.8799 31.0332 17.6833 31.0332Z" stroke="black" stroke-width="1.5" stroke-linecap="round" stroke-linejoin="round"/>
<path d="M17.6833 31.0332H17.6667C16.47 31.0332 15.5 32.0033 15.5 33.1999V33.2165C15.5 34.4132 16.47 35.3832 17.6667 35.3832H17.6833C18.8799 35.3832 19.85 34.4132 19.85 33.2165V33.1999C19.85 32.0033 18.8799 31.0332 17.6833 31.0332Z" stroke="black" stroke-width="1.5" stroke-linecap="round" stroke-linejoin="round"/>
<path d="M29.115 31.0332H29.0983C27.9017 31.0332 26.9316 32.0033 26.9316 33.1999V33.2165C26.9316 34.4132 27.9017 35.3832 29.0983 35.3832H29.115C30.3116 35.3832 31.2816 34.4132 31.2816 33.2165V33.1999C31.2816 32.0033 30.3116 31.0332 29.115 31.0332Z" stroke="black" stroke-width="1.5" stroke-linecap="round" stroke-linejoin="round"/>
</svg>
