<svg width="40" height="40" viewBox="0 0 40 40" fill="none" xmlns="http://www.w3.org/2000/svg">
<path d="M23.3333 11.6667C25.1743 11.6667 26.6667 10.1743 26.6667 8.33333C26.6667 6.49238 25.1743 5 23.3333 5C21.4924 5 20 6.49238 20 8.33333C20 10.1743 21.4924 11.6667 23.3333 11.6667Z" stroke="black" stroke-width="1.5" stroke-linecap="round" stroke-linejoin="round"/>
<path d="M24.9993 34.9997C26.8403 34.9997 28.3327 33.5073 28.3327 31.6663C28.3327 29.8254 26.8403 28.333 24.9993 28.333C23.1584 28.333 21.666 29.8254 21.666 31.6663C21.666 33.5073 23.1584 34.9997 24.9993 34.9997Z" stroke="black" stroke-width="1.5" stroke-linecap="round" stroke-linejoin="round"/>
<path d="M13.3333 23.3337C15.1743 23.3337 16.6667 21.8413 16.6667 20.0003C16.6667 18.1594 15.1743 16.667 13.3333 16.667C11.4924 16.667 10 18.1594 10 20.0003C10 21.8413 11.4924 23.3337 13.3333 23.3337Z" stroke="black" stroke-width="1.5" stroke-linecap="round" stroke-linejoin="round"/>
<path d="M5 8.33301H20" stroke="black" stroke-width="1.5" stroke-linecap="round" stroke-linejoin="round"/>
<path d="M26.666 8.33301H34.9993" stroke="black" stroke-width="1.5" stroke-linecap="round" stroke-linejoin="round"/>
<path d="M5 20H10" stroke="black" stroke-width="1.5" stroke-linecap="round" stroke-linejoin="round"/>
<path d="M16.666 20H34.9994" stroke="black" stroke-width="1.5" stroke-linecap="round" stroke-linejoin="round"/>
<path d="M5 31.667H21.6667" stroke="black" stroke-width="1.5" stroke-linecap="round" stroke-linejoin="round"/>
<path d="M28.334 31.667H35.0007" stroke="black" stroke-width="1.5" stroke-linecap="round" stroke-linejoin="round"/>
</svg>
