<svg width="247" height="220" viewBox="0 0 247 220" fill="none" xmlns="http://www.w3.org/2000/svg">
<rect width="224" height="220" rx="110" fill="#651FFF"/>
<path d="M178.937 92.8206L196.192 122.707L183.185 119.222C182.605 119.062 181.999 119.019 181.403 119.095C180.806 119.17 180.23 119.363 179.708 119.662C179.186 119.962 178.728 120.361 178.361 120.838C177.994 121.314 177.725 121.859 177.569 122.44C177.414 123.021 177.374 123.627 177.454 124.224C177.533 124.82 177.73 125.395 178.032 125.915C178.335 126.435 178.737 126.89 179.216 127.254C179.695 127.618 180.242 127.883 180.824 128.035L204.196 134.298C204.775 134.454 205.379 134.494 205.973 134.416C206.568 134.338 207.141 134.144 207.66 133.844C208.179 133.545 208.634 133.146 208.999 132.67C209.364 132.194 209.631 131.651 209.785 131.072L216.048 107.7C216.361 106.531 216.197 105.286 215.592 104.238C214.987 103.19 213.99 102.425 212.822 102.112C211.653 101.799 210.407 101.963 209.359 102.568C208.311 103.173 207.547 104.169 207.234 105.338L203.895 117.796L186.84 88.2581C185.538 86.004 183.666 84.1322 181.412 82.8308C179.158 81.5294 176.601 80.8442 173.998 80.8442C171.395 80.8442 168.838 81.5294 166.584 82.8308C164.33 84.1322 162.458 86.004 161.157 88.2581L146.998 112.782C146.393 113.83 146.229 115.075 146.542 116.244C146.855 117.413 147.62 118.409 148.668 119.014C149.716 119.619 150.961 119.783 152.13 119.47C153.299 119.157 154.295 118.392 154.901 117.344L169.059 92.8206C169.56 91.9537 170.28 91.2338 171.147 90.7333C172.014 90.2328 172.997 89.9693 173.998 89.9693C174.999 89.9693 175.983 90.2328 176.85 90.7333C177.717 91.2338 178.437 91.9537 178.937 92.8206Z" fill="#FF9800"/>
<path d="M236.23 173.805L222.072 149.281C221.462 148.242 220.467 147.486 219.302 147.178C218.137 146.87 216.898 147.035 215.854 147.638C214.811 148.24 214.048 149.231 213.732 150.393C213.417 151.556 213.574 152.797 214.169 153.844L228.328 178.367C228.828 179.234 229.092 180.218 229.092 181.219C229.092 182.22 228.828 183.203 228.328 184.07C227.827 184.937 227.107 185.657 226.24 186.158C225.373 186.658 224.39 186.922 223.389 186.922H189.861L199.181 177.601C200.037 176.746 200.518 175.585 200.518 174.375C200.518 173.165 200.037 172.005 199.181 171.149C198.326 170.293 197.165 169.813 195.955 169.813C194.745 169.813 193.585 170.293 192.729 171.149L175.62 188.258C175.196 188.682 174.86 189.185 174.631 189.738C174.401 190.292 174.283 190.885 174.283 191.485C174.283 192.084 174.401 192.677 174.631 193.231C174.86 193.784 175.196 194.287 175.62 194.711L192.729 211.82C193.585 212.676 194.745 213.157 195.955 213.157C197.165 213.157 198.326 212.676 199.181 211.82C200.037 210.965 200.518 209.804 200.518 208.594C200.518 207.384 200.037 206.223 199.181 205.368L189.861 196.047H223.389C225.992 196.047 228.549 195.362 230.803 194.06C233.057 192.759 234.929 190.887 236.23 188.633C237.532 186.379 238.217 183.822 238.217 181.219C238.217 178.616 237.532 176.059 236.23 173.805Z" fill="#FF9800"/>
<path d="M153.467 186.922H124.609C123.608 186.922 122.624 186.659 121.757 186.158C120.89 185.658 120.17 184.938 119.67 184.071C119.169 183.204 118.906 182.22 118.906 181.219C118.906 180.218 119.169 179.235 119.67 178.368L137.402 147.656L141.055 161.289C141.368 162.458 142.132 163.454 143.18 164.059C144.228 164.664 145.474 164.828 146.643 164.515C147.811 164.202 148.808 163.437 149.413 162.389C150.018 161.341 150.182 160.096 149.869 158.927L143.606 135.555C143.451 134.976 143.184 134.434 142.819 133.958C142.454 133.483 141.999 133.084 141.48 132.784C140.961 132.485 140.388 132.29 139.794 132.212C139.2 132.134 138.596 132.174 138.017 132.329L114.645 138.59C114.063 138.742 113.517 139.008 113.038 139.372C112.559 139.736 112.156 140.191 111.854 140.711C111.551 141.231 111.355 141.806 111.275 142.402C111.196 142.998 111.235 143.605 111.391 144.186C111.546 144.767 111.815 145.311 112.182 145.788C112.549 146.265 113.007 146.664 113.529 146.963C114.051 147.262 114.627 147.455 115.224 147.531C115.821 147.607 116.427 147.564 117.007 147.404L128.839 144.234L111.766 173.805C110.464 176.059 109.779 178.616 109.779 181.219C109.779 183.822 110.465 186.38 111.766 188.634C113.068 190.888 114.94 192.76 117.194 194.061C119.449 195.363 122.006 196.048 124.609 196.047H153.467C154.677 196.047 155.837 195.567 156.693 194.711C157.548 193.855 158.029 192.695 158.029 191.485C158.029 190.275 157.548 189.114 156.693 188.259C155.837 187.403 154.677 186.922 153.467 186.922Z" fill="#FF9800"/>
<path d="M218.25 108.29L211.988 131.662C211.597 133.116 210.738 134.4 209.543 135.317C208.349 136.234 206.886 136.732 205.38 136.735C204.782 136.735 204.185 136.657 203.607 136.501L180.235 130.239C179.356 130.017 178.529 129.622 177.803 129.078C177.078 128.534 176.467 127.851 176.008 127.068C175.549 126.286 175.249 125.42 175.128 124.521C175.006 123.622 175.064 122.708 175.299 121.832C175.534 120.956 175.94 120.135 176.495 119.417C177.05 118.699 177.742 118.099 178.531 117.651C179.32 117.203 180.19 116.917 181.09 116.808C181.991 116.7 182.904 116.771 183.777 117.019L191.465 119.078L176.962 93.9612C176.661 93.4413 176.229 93.0096 175.709 92.7095C175.189 92.4094 174.599 92.2514 173.999 92.2514C173.399 92.2514 172.809 92.4094 172.289 92.7095C171.769 93.0096 171.337 93.4413 171.036 93.9612L156.878 118.485C155.971 120.057 154.476 121.204 152.723 121.673C150.969 122.143 149.101 121.897 147.529 120.99C145.957 120.082 144.81 118.587 144.341 116.834C143.871 115.081 144.117 113.213 145.024 111.641L159.182 87.1174C160.684 84.5167 162.844 82.357 165.445 80.8555C168.046 79.354 170.996 78.5635 173.999 78.5635C177.002 78.5635 179.952 79.354 182.553 80.8555C185.154 82.357 187.314 84.5167 188.816 87.1174L203.116 111.886L205.03 104.749C205.52 103.019 206.672 101.552 208.235 100.665C209.798 99.7771 211.648 99.5404 213.385 100.006C215.121 100.471 216.605 101.601 217.515 103.151C218.426 104.701 218.689 106.547 218.25 108.29Z" fill="#FF5823"/>
<path d="M238.208 189.774C236.72 192.387 234.563 194.556 231.959 196.06C229.355 197.563 226.398 198.346 223.391 198.328H195.369L200.795 203.755C201.439 204.388 201.951 205.143 202.302 205.976C202.653 206.808 202.836 207.702 202.839 208.605C202.843 209.509 202.668 210.404 202.324 211.239C201.98 212.075 201.474 212.834 200.835 213.473C200.196 214.111 199.437 214.617 198.602 214.961C197.766 215.305 196.871 215.481 195.968 215.477C195.064 215.473 194.171 215.291 193.338 214.94C192.506 214.589 191.751 214.077 191.117 213.433L174.008 196.324C172.726 195.039 172.006 193.299 172.006 191.485C172.006 189.67 172.726 187.93 174.008 186.645L191.117 169.536C192.404 168.27 194.139 167.564 195.945 167.571C197.75 167.578 199.479 168.299 200.756 169.575C202.033 170.852 202.753 172.581 202.76 174.387C202.768 176.192 202.061 177.927 200.795 179.214L195.369 184.641H223.391C223.992 184.641 224.582 184.482 225.102 184.182C225.622 183.882 226.054 183.45 226.354 182.93C226.654 182.409 226.812 181.819 226.812 181.219C226.812 180.618 226.654 180.028 226.354 179.508L212.196 154.985C211.727 154.206 211.418 153.341 211.287 152.441C211.156 151.542 211.205 150.625 211.432 149.744C211.66 148.864 212.06 148.038 212.61 147.314C213.16 146.59 213.849 145.983 214.636 145.528C215.424 145.073 216.294 144.78 217.196 144.665C218.098 144.551 219.014 144.617 219.89 144.86C220.766 145.104 221.585 145.519 222.299 146.082C223.012 146.645 223.607 147.345 224.047 148.141L238.208 172.664C239.726 175.26 240.526 178.212 240.526 181.219C240.526 184.226 239.726 187.178 238.208 189.774Z" fill="#FF5823"/>
<path d="M160.311 191.484C160.309 193.299 159.587 195.038 158.304 196.321C157.021 197.604 155.282 198.326 153.468 198.328H124.607C121.604 198.328 118.653 197.537 116.052 196.036C113.452 194.534 111.292 192.374 109.79 189.773C108.289 187.172 107.498 184.222 107.498 181.219C107.498 178.215 108.289 175.265 109.79 172.664L124.111 147.861L117.598 149.606C115.855 150.046 114.009 149.782 112.458 148.872C110.908 147.962 109.778 146.478 109.313 144.741C108.848 143.005 109.085 141.155 109.972 139.592C110.86 138.028 112.327 136.877 114.056 136.386L137.428 130.124C138.296 129.891 139.201 129.831 140.092 129.948C140.983 130.065 141.843 130.357 142.621 130.806C143.4 131.256 144.082 131.854 144.629 132.568C145.176 133.281 145.576 134.095 145.808 134.963L152.073 158.335C152.306 159.203 152.365 160.109 152.248 161C152.13 161.891 151.838 162.75 151.389 163.528C150.481 165.1 148.986 166.247 147.233 166.717C145.479 167.187 143.611 166.941 142.039 166.033C140.467 165.125 139.32 163.63 138.851 161.877L136.623 153.564L121.644 179.508C121.344 180.028 121.186 180.618 121.186 181.218C121.186 181.819 121.344 182.409 121.644 182.929C121.944 183.449 122.376 183.881 122.896 184.182C123.416 184.482 124.006 184.64 124.607 184.641H153.468C155.282 184.643 157.021 185.365 158.304 186.648C159.587 187.931 160.309 189.67 160.311 191.484Z" fill="#FF5823"/>
</svg>
